%TF.GenerationSoftware,KiCad,Pcbnew,10.0.0*%
%TF.CreationDate,2026-03-21T17:09:58-07:00*%
%TF.ProjectId,FC-v1,46432d76-312e-46b6-9963-61645f706362,rev?*%
%TF.SameCoordinates,Original*%
%TF.FileFunction,Legend,Top*%
%TF.FilePolarity,Positive*%
%FSLAX46Y46*%
G04 Gerber Fmt 4.6, Leading zero omitted, Abs format (unit mm)*
G04 Created by KiCad (PCBNEW 10.0.0) date 2026-03-21 17:09:58*
%MOMM*%
%LPD*%
G01*
G04 APERTURE LIST*
%ADD10C,0.150000*%
%ADD11C,0.300000*%
%ADD12C,0.100000*%
%ADD13C,0.000000*%
%ADD14C,0.120000*%
%ADD15C,0.127000*%
G04 APERTURE END LIST*
D10*
X124700000Y-44910000D02*
X165590000Y-44910000D01*
X165590000Y-113500000D01*
X124700000Y-113500000D01*
X124700000Y-44910000D01*
D11*
X176840225Y-66872257D02*
X176697368Y-66800828D01*
X176697368Y-66800828D02*
X176483082Y-66800828D01*
X176483082Y-66800828D02*
X176268796Y-66872257D01*
X176268796Y-66872257D02*
X176125939Y-67015114D01*
X176125939Y-67015114D02*
X176054510Y-67157971D01*
X176054510Y-67157971D02*
X175983082Y-67443685D01*
X175983082Y-67443685D02*
X175983082Y-67657971D01*
X175983082Y-67657971D02*
X176054510Y-67943685D01*
X176054510Y-67943685D02*
X176125939Y-68086542D01*
X176125939Y-68086542D02*
X176268796Y-68229400D01*
X176268796Y-68229400D02*
X176483082Y-68300828D01*
X176483082Y-68300828D02*
X176625939Y-68300828D01*
X176625939Y-68300828D02*
X176840225Y-68229400D01*
X176840225Y-68229400D02*
X176911653Y-68157971D01*
X176911653Y-68157971D02*
X176911653Y-67657971D01*
X176911653Y-67657971D02*
X176625939Y-67657971D01*
X177554510Y-68300828D02*
X177554510Y-66800828D01*
X177554510Y-66800828D02*
X178125939Y-66800828D01*
X178125939Y-66800828D02*
X178268796Y-66872257D01*
X178268796Y-66872257D02*
X178340225Y-66943685D01*
X178340225Y-66943685D02*
X178411653Y-67086542D01*
X178411653Y-67086542D02*
X178411653Y-67300828D01*
X178411653Y-67300828D02*
X178340225Y-67443685D01*
X178340225Y-67443685D02*
X178268796Y-67515114D01*
X178268796Y-67515114D02*
X178125939Y-67586542D01*
X178125939Y-67586542D02*
X177554510Y-67586542D01*
X178983082Y-68229400D02*
X179197368Y-68300828D01*
X179197368Y-68300828D02*
X179554510Y-68300828D01*
X179554510Y-68300828D02*
X179697368Y-68229400D01*
X179697368Y-68229400D02*
X179768796Y-68157971D01*
X179768796Y-68157971D02*
X179840225Y-68015114D01*
X179840225Y-68015114D02*
X179840225Y-67872257D01*
X179840225Y-67872257D02*
X179768796Y-67729400D01*
X179768796Y-67729400D02*
X179697368Y-67657971D01*
X179697368Y-67657971D02*
X179554510Y-67586542D01*
X179554510Y-67586542D02*
X179268796Y-67515114D01*
X179268796Y-67515114D02*
X179125939Y-67443685D01*
X179125939Y-67443685D02*
X179054510Y-67372257D01*
X179054510Y-67372257D02*
X178983082Y-67229400D01*
X178983082Y-67229400D02*
X178983082Y-67086542D01*
X178983082Y-67086542D02*
X179054510Y-66943685D01*
X179054510Y-66943685D02*
X179125939Y-66872257D01*
X179125939Y-66872257D02*
X179268796Y-66800828D01*
X179268796Y-66800828D02*
X179625939Y-66800828D01*
X179625939Y-66800828D02*
X179840225Y-66872257D01*
X108300828Y-103445489D02*
X106800828Y-103445489D01*
X106800828Y-103445489D02*
X106800828Y-102874060D01*
X106800828Y-102874060D02*
X106872257Y-102731203D01*
X106872257Y-102731203D02*
X106943685Y-102659774D01*
X106943685Y-102659774D02*
X107086542Y-102588346D01*
X107086542Y-102588346D02*
X107300828Y-102588346D01*
X107300828Y-102588346D02*
X107443685Y-102659774D01*
X107443685Y-102659774D02*
X107515114Y-102731203D01*
X107515114Y-102731203D02*
X107586542Y-102874060D01*
X107586542Y-102874060D02*
X107586542Y-103445489D01*
X106800828Y-102088346D02*
X108300828Y-101731203D01*
X108300828Y-101731203D02*
X107229400Y-101445489D01*
X107229400Y-101445489D02*
X108300828Y-101159774D01*
X108300828Y-101159774D02*
X106800828Y-100802632D01*
X108300828Y-99374060D02*
X107586542Y-99874060D01*
X108300828Y-100231203D02*
X106800828Y-100231203D01*
X106800828Y-100231203D02*
X106800828Y-99659774D01*
X106800828Y-99659774D02*
X106872257Y-99516917D01*
X106872257Y-99516917D02*
X106943685Y-99445488D01*
X106943685Y-99445488D02*
X107086542Y-99374060D01*
X107086542Y-99374060D02*
X107300828Y-99374060D01*
X107300828Y-99374060D02*
X107443685Y-99445488D01*
X107443685Y-99445488D02*
X107515114Y-99516917D01*
X107515114Y-99516917D02*
X107586542Y-99659774D01*
X107586542Y-99659774D02*
X107586542Y-100231203D01*
D10*
X185666666Y-56304819D02*
X185333333Y-55828628D01*
X185095238Y-56304819D02*
X185095238Y-55304819D01*
X185095238Y-55304819D02*
X185476190Y-55304819D01*
X185476190Y-55304819D02*
X185571428Y-55352438D01*
X185571428Y-55352438D02*
X185619047Y-55400057D01*
X185619047Y-55400057D02*
X185666666Y-55495295D01*
X185666666Y-55495295D02*
X185666666Y-55638152D01*
X185666666Y-55638152D02*
X185619047Y-55733390D01*
X185619047Y-55733390D02*
X185571428Y-55781009D01*
X185571428Y-55781009D02*
X185476190Y-55828628D01*
X185476190Y-55828628D02*
X185095238Y-55828628D01*
X186095238Y-55781009D02*
X186428571Y-55781009D01*
X186571428Y-56304819D02*
X186095238Y-56304819D01*
X186095238Y-56304819D02*
X186095238Y-55304819D01*
X186095238Y-55304819D02*
X186571428Y-55304819D01*
X187333333Y-55781009D02*
X187000000Y-55781009D01*
X187000000Y-56304819D02*
X187000000Y-55304819D01*
X187000000Y-55304819D02*
X187476190Y-55304819D01*
X188000000Y-55304819D02*
X188000000Y-55542914D01*
X187761905Y-55447676D02*
X188000000Y-55542914D01*
X188000000Y-55542914D02*
X188238095Y-55447676D01*
X187857143Y-55733390D02*
X188000000Y-55542914D01*
X188000000Y-55542914D02*
X188142857Y-55733390D01*
X188761905Y-55304819D02*
X188761905Y-55542914D01*
X188523810Y-55447676D02*
X188761905Y-55542914D01*
X188761905Y-55542914D02*
X189000000Y-55447676D01*
X188619048Y-55733390D02*
X188761905Y-55542914D01*
X188761905Y-55542914D02*
X188904762Y-55733390D01*
X184666666Y-116304819D02*
X184333333Y-115828628D01*
X184095238Y-116304819D02*
X184095238Y-115304819D01*
X184095238Y-115304819D02*
X184476190Y-115304819D01*
X184476190Y-115304819D02*
X184571428Y-115352438D01*
X184571428Y-115352438D02*
X184619047Y-115400057D01*
X184619047Y-115400057D02*
X184666666Y-115495295D01*
X184666666Y-115495295D02*
X184666666Y-115638152D01*
X184666666Y-115638152D02*
X184619047Y-115733390D01*
X184619047Y-115733390D02*
X184571428Y-115781009D01*
X184571428Y-115781009D02*
X184476190Y-115828628D01*
X184476190Y-115828628D02*
X184095238Y-115828628D01*
X185095238Y-115781009D02*
X185428571Y-115781009D01*
X185571428Y-116304819D02*
X185095238Y-116304819D01*
X185095238Y-116304819D02*
X185095238Y-115304819D01*
X185095238Y-115304819D02*
X185571428Y-115304819D01*
X186333333Y-115781009D02*
X186000000Y-115781009D01*
X186000000Y-116304819D02*
X186000000Y-115304819D01*
X186000000Y-115304819D02*
X186476190Y-115304819D01*
X187000000Y-115304819D02*
X187000000Y-115542914D01*
X186761905Y-115447676D02*
X187000000Y-115542914D01*
X187000000Y-115542914D02*
X187238095Y-115447676D01*
X186857143Y-115733390D02*
X187000000Y-115542914D01*
X187000000Y-115542914D02*
X187142857Y-115733390D01*
X187761905Y-115304819D02*
X187761905Y-115542914D01*
X187523810Y-115447676D02*
X187761905Y-115542914D01*
X187761905Y-115542914D02*
X188000000Y-115447676D01*
X187619048Y-115733390D02*
X187761905Y-115542914D01*
X187761905Y-115542914D02*
X187904762Y-115733390D01*
X98666666Y-116304819D02*
X98333333Y-115828628D01*
X98095238Y-116304819D02*
X98095238Y-115304819D01*
X98095238Y-115304819D02*
X98476190Y-115304819D01*
X98476190Y-115304819D02*
X98571428Y-115352438D01*
X98571428Y-115352438D02*
X98619047Y-115400057D01*
X98619047Y-115400057D02*
X98666666Y-115495295D01*
X98666666Y-115495295D02*
X98666666Y-115638152D01*
X98666666Y-115638152D02*
X98619047Y-115733390D01*
X98619047Y-115733390D02*
X98571428Y-115781009D01*
X98571428Y-115781009D02*
X98476190Y-115828628D01*
X98476190Y-115828628D02*
X98095238Y-115828628D01*
X99095238Y-115781009D02*
X99428571Y-115781009D01*
X99571428Y-116304819D02*
X99095238Y-116304819D01*
X99095238Y-116304819D02*
X99095238Y-115304819D01*
X99095238Y-115304819D02*
X99571428Y-115304819D01*
X100333333Y-115781009D02*
X100000000Y-115781009D01*
X100000000Y-116304819D02*
X100000000Y-115304819D01*
X100000000Y-115304819D02*
X100476190Y-115304819D01*
X101000000Y-115304819D02*
X101000000Y-115542914D01*
X100761905Y-115447676D02*
X101000000Y-115542914D01*
X101000000Y-115542914D02*
X101238095Y-115447676D01*
X100857143Y-115733390D02*
X101000000Y-115542914D01*
X101000000Y-115542914D02*
X101142857Y-115733390D01*
X101761905Y-115304819D02*
X101761905Y-115542914D01*
X101523810Y-115447676D02*
X101761905Y-115542914D01*
X101761905Y-115542914D02*
X102000000Y-115447676D01*
X101619048Y-115733390D02*
X101761905Y-115542914D01*
X101761905Y-115542914D02*
X101904762Y-115733390D01*
D12*
X180296636Y-128320156D02*
X180060933Y-128555858D01*
X179589529Y-128286484D02*
X179926246Y-127949766D01*
X179926246Y-127949766D02*
X180633353Y-128656873D01*
X180633353Y-128656873D02*
X180296636Y-128993591D01*
X179959918Y-129195621D02*
X179959918Y-129262965D01*
X179959918Y-129262965D02*
X179926246Y-129363980D01*
X179926246Y-129363980D02*
X179757888Y-129532339D01*
X179757888Y-129532339D02*
X179656872Y-129566010D01*
X179656872Y-129566010D02*
X179589529Y-129566010D01*
X179589529Y-129566010D02*
X179488514Y-129532339D01*
X179488514Y-129532339D02*
X179421170Y-129464995D01*
X179421170Y-129464995D02*
X179353827Y-129330308D01*
X179353827Y-129330308D02*
X179353827Y-128522186D01*
X179353827Y-128522186D02*
X178916094Y-128959919D01*
X177678379Y-129848916D02*
X177779394Y-129815244D01*
X177779394Y-129815244D02*
X177880410Y-129714229D01*
X177880410Y-129714229D02*
X177947753Y-129579542D01*
X177947753Y-129579542D02*
X177947753Y-129444855D01*
X177947753Y-129444855D02*
X177914081Y-129343839D01*
X177914081Y-129343839D02*
X177813066Y-129175481D01*
X177813066Y-129175481D02*
X177712051Y-129074465D01*
X177712051Y-129074465D02*
X177543692Y-128973450D01*
X177543692Y-128973450D02*
X177442677Y-128939778D01*
X177442677Y-128939778D02*
X177307990Y-128939778D01*
X177307990Y-128939778D02*
X177173303Y-129007122D01*
X177173303Y-129007122D02*
X177105959Y-129074465D01*
X177105959Y-129074465D02*
X177038616Y-129209152D01*
X177038616Y-129209152D02*
X177038616Y-129276496D01*
X177038616Y-129276496D02*
X177274318Y-129512198D01*
X177274318Y-129512198D02*
X177409005Y-129377511D01*
X176668226Y-129512198D02*
X177375333Y-130219305D01*
X177375333Y-130219305D02*
X176264165Y-129916259D01*
X176264165Y-129916259D02*
X176971272Y-130623366D01*
X175927448Y-130252977D02*
X176634555Y-130960084D01*
X176634555Y-130960084D02*
X176466196Y-131128442D01*
X176466196Y-131128442D02*
X176331509Y-131195786D01*
X176331509Y-131195786D02*
X176196822Y-131195786D01*
X176196822Y-131195786D02*
X176095807Y-131162114D01*
X176095807Y-131162114D02*
X175927448Y-131061099D01*
X175927448Y-131061099D02*
X175826433Y-130960084D01*
X175826433Y-130960084D02*
X175725417Y-130791725D01*
X175725417Y-130791725D02*
X175691746Y-130690710D01*
X175691746Y-130690710D02*
X175691746Y-130556023D01*
X175691746Y-130556023D02*
X175759089Y-130421335D01*
X175759089Y-130421335D02*
X175927448Y-130252977D01*
X179320156Y-54703364D02*
X179555858Y-54939067D01*
X179286484Y-55410471D02*
X178949766Y-55073754D01*
X178949766Y-55073754D02*
X179656873Y-54366647D01*
X179656873Y-54366647D02*
X179993591Y-54703364D01*
X180229293Y-54939067D02*
X180667026Y-55376799D01*
X180667026Y-55376799D02*
X180161949Y-55410471D01*
X180161949Y-55410471D02*
X180262965Y-55511486D01*
X180262965Y-55511486D02*
X180296636Y-55612502D01*
X180296636Y-55612502D02*
X180296636Y-55679845D01*
X180296636Y-55679845D02*
X180262965Y-55780860D01*
X180262965Y-55780860D02*
X180094606Y-55949219D01*
X180094606Y-55949219D02*
X179993591Y-55982891D01*
X179993591Y-55982891D02*
X179926247Y-55982891D01*
X179926247Y-55982891D02*
X179825232Y-55949219D01*
X179825232Y-55949219D02*
X179623201Y-55747189D01*
X179623201Y-55747189D02*
X179589530Y-55646173D01*
X179589530Y-55646173D02*
X179589530Y-55578830D01*
X180848916Y-57821619D02*
X180815244Y-57720604D01*
X180815244Y-57720604D02*
X180714229Y-57619588D01*
X180714229Y-57619588D02*
X180579542Y-57552245D01*
X180579542Y-57552245D02*
X180444855Y-57552245D01*
X180444855Y-57552245D02*
X180343839Y-57585917D01*
X180343839Y-57585917D02*
X180175481Y-57686932D01*
X180175481Y-57686932D02*
X180074465Y-57787947D01*
X180074465Y-57787947D02*
X179973450Y-57956306D01*
X179973450Y-57956306D02*
X179939778Y-58057321D01*
X179939778Y-58057321D02*
X179939778Y-58192008D01*
X179939778Y-58192008D02*
X180007122Y-58326695D01*
X180007122Y-58326695D02*
X180074465Y-58394039D01*
X180074465Y-58394039D02*
X180209152Y-58461382D01*
X180209152Y-58461382D02*
X180276496Y-58461382D01*
X180276496Y-58461382D02*
X180512198Y-58225680D01*
X180512198Y-58225680D02*
X180377511Y-58090993D01*
X180512198Y-58831772D02*
X181219305Y-58124665D01*
X181219305Y-58124665D02*
X180916259Y-59235833D01*
X180916259Y-59235833D02*
X181623366Y-58528726D01*
X181252977Y-59572550D02*
X181960084Y-58865443D01*
X181960084Y-58865443D02*
X182128442Y-59033802D01*
X182128442Y-59033802D02*
X182195786Y-59168489D01*
X182195786Y-59168489D02*
X182195786Y-59303176D01*
X182195786Y-59303176D02*
X182162114Y-59404191D01*
X182162114Y-59404191D02*
X182061099Y-59572550D01*
X182061099Y-59572550D02*
X181960084Y-59673565D01*
X181960084Y-59673565D02*
X181791725Y-59774581D01*
X181791725Y-59774581D02*
X181690710Y-59808252D01*
X181690710Y-59808252D02*
X181556023Y-59808252D01*
X181556023Y-59808252D02*
X181421335Y-59740909D01*
X181421335Y-59740909D02*
X181252977Y-59572550D01*
X106679844Y-129296636D02*
X106444142Y-129060933D01*
X106713516Y-128589529D02*
X107050234Y-128926246D01*
X107050234Y-128926246D02*
X106343127Y-129633353D01*
X106343127Y-129633353D02*
X106006409Y-129296636D01*
X105636020Y-128454842D02*
X106107425Y-127983437D01*
X105535005Y-128892575D02*
X106208440Y-128555857D01*
X106208440Y-128555857D02*
X105770707Y-128118124D01*
X104651083Y-126178380D02*
X104684755Y-126279395D01*
X104684755Y-126279395D02*
X104785770Y-126380411D01*
X104785770Y-126380411D02*
X104920457Y-126447754D01*
X104920457Y-126447754D02*
X105055144Y-126447754D01*
X105055144Y-126447754D02*
X105156160Y-126414082D01*
X105156160Y-126414082D02*
X105324518Y-126313067D01*
X105324518Y-126313067D02*
X105425534Y-126212052D01*
X105425534Y-126212052D02*
X105526549Y-126043693D01*
X105526549Y-126043693D02*
X105560221Y-125942678D01*
X105560221Y-125942678D02*
X105560221Y-125807991D01*
X105560221Y-125807991D02*
X105492877Y-125673304D01*
X105492877Y-125673304D02*
X105425534Y-125605960D01*
X105425534Y-125605960D02*
X105290847Y-125538617D01*
X105290847Y-125538617D02*
X105223503Y-125538617D01*
X105223503Y-125538617D02*
X104987801Y-125774319D01*
X104987801Y-125774319D02*
X105122488Y-125909006D01*
X104987801Y-125168227D02*
X104280694Y-125875334D01*
X104280694Y-125875334D02*
X104583740Y-124764166D01*
X104583740Y-124764166D02*
X103876633Y-125471273D01*
X104247022Y-124427449D02*
X103539915Y-125134556D01*
X103539915Y-125134556D02*
X103371557Y-124966197D01*
X103371557Y-124966197D02*
X103304213Y-124831510D01*
X103304213Y-124831510D02*
X103304213Y-124696823D01*
X103304213Y-124696823D02*
X103337885Y-124595808D01*
X103337885Y-124595808D02*
X103438900Y-124427449D01*
X103438900Y-124427449D02*
X103539915Y-124326434D01*
X103539915Y-124326434D02*
X103708274Y-124225418D01*
X103708274Y-124225418D02*
X103809289Y-124191747D01*
X103809289Y-124191747D02*
X103943976Y-124191747D01*
X103943976Y-124191747D02*
X104078664Y-124259090D01*
X104078664Y-124259090D02*
X104247022Y-124427449D01*
X103110476Y-71497419D02*
X103110476Y-70497419D01*
X103110476Y-70497419D02*
X103443809Y-71211704D01*
X103443809Y-71211704D02*
X103777142Y-70497419D01*
X103777142Y-70497419D02*
X103777142Y-71497419D01*
X104253333Y-71497419D02*
X104253333Y-70497419D01*
X104253333Y-70497419D02*
X104634285Y-70497419D01*
X104634285Y-70497419D02*
X104729523Y-70545038D01*
X104729523Y-70545038D02*
X104777142Y-70592657D01*
X104777142Y-70592657D02*
X104824761Y-70687895D01*
X104824761Y-70687895D02*
X104824761Y-70830752D01*
X104824761Y-70830752D02*
X104777142Y-70925990D01*
X104777142Y-70925990D02*
X104729523Y-70973609D01*
X104729523Y-70973609D02*
X104634285Y-71021228D01*
X104634285Y-71021228D02*
X104253333Y-71021228D01*
X105777142Y-71497419D02*
X105205714Y-71497419D01*
X105491428Y-71497419D02*
X105491428Y-70497419D01*
X105491428Y-70497419D02*
X105396190Y-70640276D01*
X105396190Y-70640276D02*
X105300952Y-70735514D01*
X105300952Y-70735514D02*
X105205714Y-70783133D01*
X109661027Y-70412419D02*
X109994360Y-71412419D01*
X109994360Y-71412419D02*
X110327693Y-70412419D01*
X110661027Y-71412419D02*
X110661027Y-70412419D01*
X111137217Y-71412419D02*
X111137217Y-70412419D01*
X111137217Y-70412419D02*
X111708645Y-71412419D01*
X111708645Y-71412419D02*
X111708645Y-70412419D01*
X158952381Y-123957419D02*
X158952381Y-122957419D01*
X159999999Y-123862180D02*
X159952380Y-123909800D01*
X159952380Y-123909800D02*
X159809523Y-123957419D01*
X159809523Y-123957419D02*
X159714285Y-123957419D01*
X159714285Y-123957419D02*
X159571428Y-123909800D01*
X159571428Y-123909800D02*
X159476190Y-123814561D01*
X159476190Y-123814561D02*
X159428571Y-123719323D01*
X159428571Y-123719323D02*
X159380952Y-123528847D01*
X159380952Y-123528847D02*
X159380952Y-123385990D01*
X159380952Y-123385990D02*
X159428571Y-123195514D01*
X159428571Y-123195514D02*
X159476190Y-123100276D01*
X159476190Y-123100276D02*
X159571428Y-123005038D01*
X159571428Y-123005038D02*
X159714285Y-122957419D01*
X159714285Y-122957419D02*
X159809523Y-122957419D01*
X159809523Y-122957419D02*
X159952380Y-123005038D01*
X159952380Y-123005038D02*
X159999999Y-123052657D01*
X160428571Y-123957419D02*
X160428571Y-122957419D01*
X160428571Y-122957419D02*
X160761904Y-123671704D01*
X160761904Y-123671704D02*
X161095237Y-122957419D01*
X161095237Y-122957419D02*
X161095237Y-123957419D01*
X162095237Y-123957419D02*
X161523809Y-123957419D01*
X161809523Y-123957419D02*
X161809523Y-122957419D01*
X161809523Y-122957419D02*
X161714285Y-123100276D01*
X161714285Y-123100276D02*
X161619047Y-123195514D01*
X161619047Y-123195514D02*
X161523809Y-123243133D01*
X100626666Y-101877419D02*
X100626666Y-102591704D01*
X100626666Y-102591704D02*
X100579047Y-102734561D01*
X100579047Y-102734561D02*
X100483809Y-102829800D01*
X100483809Y-102829800D02*
X100340952Y-102877419D01*
X100340952Y-102877419D02*
X100245714Y-102877419D01*
X101531428Y-102210752D02*
X101531428Y-102877419D01*
X101293333Y-101829800D02*
X101055238Y-102544085D01*
X101055238Y-102544085D02*
X101674285Y-102544085D01*
D10*
X158166666Y-49954819D02*
X158166666Y-50669104D01*
X158166666Y-50669104D02*
X158119047Y-50811961D01*
X158119047Y-50811961D02*
X158023809Y-50907200D01*
X158023809Y-50907200D02*
X157880952Y-50954819D01*
X157880952Y-50954819D02*
X157785714Y-50954819D01*
X158547619Y-49954819D02*
X159166666Y-49954819D01*
X159166666Y-49954819D02*
X158833333Y-50335771D01*
X158833333Y-50335771D02*
X158976190Y-50335771D01*
X158976190Y-50335771D02*
X159071428Y-50383390D01*
X159071428Y-50383390D02*
X159119047Y-50431009D01*
X159119047Y-50431009D02*
X159166666Y-50526247D01*
X159166666Y-50526247D02*
X159166666Y-50764342D01*
X159166666Y-50764342D02*
X159119047Y-50859580D01*
X159119047Y-50859580D02*
X159071428Y-50907200D01*
X159071428Y-50907200D02*
X158976190Y-50954819D01*
X158976190Y-50954819D02*
X158690476Y-50954819D01*
X158690476Y-50954819D02*
X158595238Y-50907200D01*
X158595238Y-50907200D02*
X158547619Y-50859580D01*
D12*
X105703364Y-55679844D02*
X105939067Y-55444142D01*
X106410471Y-55713516D02*
X106073754Y-56050234D01*
X106073754Y-56050234D02*
X105366647Y-55343127D01*
X105366647Y-55343127D02*
X105703364Y-55006409D01*
X107083906Y-55040081D02*
X106679845Y-55444142D01*
X106881876Y-55242112D02*
X106174769Y-54535005D01*
X106174769Y-54535005D02*
X106208441Y-54703364D01*
X106208441Y-54703364D02*
X106208441Y-54838051D01*
X106208441Y-54838051D02*
X106174769Y-54939066D01*
X108821619Y-54151083D02*
X108720604Y-54184755D01*
X108720604Y-54184755D02*
X108619588Y-54285770D01*
X108619588Y-54285770D02*
X108552245Y-54420457D01*
X108552245Y-54420457D02*
X108552245Y-54555144D01*
X108552245Y-54555144D02*
X108585917Y-54656160D01*
X108585917Y-54656160D02*
X108686932Y-54824518D01*
X108686932Y-54824518D02*
X108787947Y-54925534D01*
X108787947Y-54925534D02*
X108956306Y-55026549D01*
X108956306Y-55026549D02*
X109057321Y-55060221D01*
X109057321Y-55060221D02*
X109192008Y-55060221D01*
X109192008Y-55060221D02*
X109326695Y-54992877D01*
X109326695Y-54992877D02*
X109394039Y-54925534D01*
X109394039Y-54925534D02*
X109461382Y-54790847D01*
X109461382Y-54790847D02*
X109461382Y-54723503D01*
X109461382Y-54723503D02*
X109225680Y-54487801D01*
X109225680Y-54487801D02*
X109090993Y-54622488D01*
X109831772Y-54487801D02*
X109124665Y-53780694D01*
X109124665Y-53780694D02*
X110235833Y-54083740D01*
X110235833Y-54083740D02*
X109528726Y-53376633D01*
X110572550Y-53747022D02*
X109865443Y-53039915D01*
X109865443Y-53039915D02*
X110033802Y-52871557D01*
X110033802Y-52871557D02*
X110168489Y-52804213D01*
X110168489Y-52804213D02*
X110303176Y-52804213D01*
X110303176Y-52804213D02*
X110404191Y-52837885D01*
X110404191Y-52837885D02*
X110572550Y-52938900D01*
X110572550Y-52938900D02*
X110673565Y-53039915D01*
X110673565Y-53039915D02*
X110774581Y-53208274D01*
X110774581Y-53208274D02*
X110808252Y-53309289D01*
X110808252Y-53309289D02*
X110808252Y-53443976D01*
X110808252Y-53443976D02*
X110740909Y-53578664D01*
X110740909Y-53578664D02*
X110572550Y-53747022D01*
X119127580Y-124553884D02*
X120127580Y-124553884D01*
X120127580Y-124553884D02*
X120127580Y-124934836D01*
X120127580Y-124934836D02*
X120079961Y-125030074D01*
X120079961Y-125030074D02*
X120032342Y-125077693D01*
X120032342Y-125077693D02*
X119937104Y-125125312D01*
X119937104Y-125125312D02*
X119794247Y-125125312D01*
X119794247Y-125125312D02*
X119699009Y-125077693D01*
X119699009Y-125077693D02*
X119651390Y-125030074D01*
X119651390Y-125030074D02*
X119603771Y-124934836D01*
X119603771Y-124934836D02*
X119603771Y-124553884D01*
X119651390Y-125553884D02*
X119651390Y-125887217D01*
X119127580Y-126030074D02*
X119127580Y-125553884D01*
X119127580Y-125553884D02*
X120127580Y-125553884D01*
X120127580Y-125553884D02*
X120127580Y-126030074D01*
X119127580Y-126982455D02*
X119127580Y-126411027D01*
X119127580Y-126696741D02*
X120127580Y-126696741D01*
X120127580Y-126696741D02*
X119984723Y-126601503D01*
X119984723Y-126601503D02*
X119889485Y-126506265D01*
X119889485Y-126506265D02*
X119841866Y-126411027D01*
X119127580Y-127934836D02*
X119127580Y-127363408D01*
X119127580Y-127649122D02*
X120127580Y-127649122D01*
X120127580Y-127649122D02*
X119984723Y-127553884D01*
X119984723Y-127553884D02*
X119889485Y-127458646D01*
X119889485Y-127458646D02*
X119841866Y-127363408D01*
X126111961Y-125799695D02*
X126159580Y-125704457D01*
X126159580Y-125704457D02*
X126159580Y-125561600D01*
X126159580Y-125561600D02*
X126111961Y-125418743D01*
X126111961Y-125418743D02*
X126016723Y-125323505D01*
X126016723Y-125323505D02*
X125921485Y-125275886D01*
X125921485Y-125275886D02*
X125731009Y-125228267D01*
X125731009Y-125228267D02*
X125588152Y-125228267D01*
X125588152Y-125228267D02*
X125397676Y-125275886D01*
X125397676Y-125275886D02*
X125302438Y-125323505D01*
X125302438Y-125323505D02*
X125207200Y-125418743D01*
X125207200Y-125418743D02*
X125159580Y-125561600D01*
X125159580Y-125561600D02*
X125159580Y-125656838D01*
X125159580Y-125656838D02*
X125207200Y-125799695D01*
X125207200Y-125799695D02*
X125254819Y-125847314D01*
X125254819Y-125847314D02*
X125588152Y-125847314D01*
X125588152Y-125847314D02*
X125588152Y-125656838D01*
X125159580Y-126275886D02*
X126159580Y-126275886D01*
X126159580Y-126275886D02*
X125159580Y-126847314D01*
X125159580Y-126847314D02*
X126159580Y-126847314D01*
X125159580Y-127323505D02*
X126159580Y-127323505D01*
X126159580Y-127323505D02*
X126159580Y-127561600D01*
X126159580Y-127561600D02*
X126111961Y-127704457D01*
X126111961Y-127704457D02*
X126016723Y-127799695D01*
X126016723Y-127799695D02*
X125921485Y-127847314D01*
X125921485Y-127847314D02*
X125731009Y-127894933D01*
X125731009Y-127894933D02*
X125588152Y-127894933D01*
X125588152Y-127894933D02*
X125397676Y-127847314D01*
X125397676Y-127847314D02*
X125302438Y-127799695D01*
X125302438Y-127799695D02*
X125207200Y-127704457D01*
X125207200Y-127704457D02*
X125159580Y-127561600D01*
X125159580Y-127561600D02*
X125159580Y-127323505D01*
D10*
X184073095Y-109447319D02*
X184073095Y-110256842D01*
X184073095Y-110256842D02*
X184120714Y-110352080D01*
X184120714Y-110352080D02*
X184168333Y-110399700D01*
X184168333Y-110399700D02*
X184263571Y-110447319D01*
X184263571Y-110447319D02*
X184454047Y-110447319D01*
X184454047Y-110447319D02*
X184549285Y-110399700D01*
X184549285Y-110399700D02*
X184596904Y-110352080D01*
X184596904Y-110352080D02*
X184644523Y-110256842D01*
X184644523Y-110256842D02*
X184644523Y-109447319D01*
X185644523Y-110447319D02*
X185073095Y-110447319D01*
X185358809Y-110447319D02*
X185358809Y-109447319D01*
X185358809Y-109447319D02*
X185263571Y-109590176D01*
X185263571Y-109590176D02*
X185168333Y-109685414D01*
X185168333Y-109685414D02*
X185073095Y-109733033D01*
D12*
X130579580Y-124303884D02*
X131579580Y-124303884D01*
X131579580Y-124303884D02*
X131579580Y-124684836D01*
X131579580Y-124684836D02*
X131531961Y-124780074D01*
X131531961Y-124780074D02*
X131484342Y-124827693D01*
X131484342Y-124827693D02*
X131389104Y-124875312D01*
X131389104Y-124875312D02*
X131246247Y-124875312D01*
X131246247Y-124875312D02*
X131151009Y-124827693D01*
X131151009Y-124827693D02*
X131103390Y-124780074D01*
X131103390Y-124780074D02*
X131055771Y-124684836D01*
X131055771Y-124684836D02*
X131055771Y-124303884D01*
X131103390Y-125303884D02*
X131103390Y-125637217D01*
X130579580Y-125780074D02*
X130579580Y-125303884D01*
X130579580Y-125303884D02*
X131579580Y-125303884D01*
X131579580Y-125303884D02*
X131579580Y-125780074D01*
X130579580Y-126732455D02*
X130579580Y-126161027D01*
X130579580Y-126446741D02*
X131579580Y-126446741D01*
X131579580Y-126446741D02*
X131436723Y-126351503D01*
X131436723Y-126351503D02*
X131341485Y-126256265D01*
X131341485Y-126256265D02*
X131293866Y-126161027D01*
X131246247Y-127589598D02*
X130579580Y-127589598D01*
X131627200Y-127351503D02*
X130912914Y-127113408D01*
X130912914Y-127113408D02*
X130912914Y-127732455D01*
X136611961Y-125799695D02*
X136659580Y-125704457D01*
X136659580Y-125704457D02*
X136659580Y-125561600D01*
X136659580Y-125561600D02*
X136611961Y-125418743D01*
X136611961Y-125418743D02*
X136516723Y-125323505D01*
X136516723Y-125323505D02*
X136421485Y-125275886D01*
X136421485Y-125275886D02*
X136231009Y-125228267D01*
X136231009Y-125228267D02*
X136088152Y-125228267D01*
X136088152Y-125228267D02*
X135897676Y-125275886D01*
X135897676Y-125275886D02*
X135802438Y-125323505D01*
X135802438Y-125323505D02*
X135707200Y-125418743D01*
X135707200Y-125418743D02*
X135659580Y-125561600D01*
X135659580Y-125561600D02*
X135659580Y-125656838D01*
X135659580Y-125656838D02*
X135707200Y-125799695D01*
X135707200Y-125799695D02*
X135754819Y-125847314D01*
X135754819Y-125847314D02*
X136088152Y-125847314D01*
X136088152Y-125847314D02*
X136088152Y-125656838D01*
X135659580Y-126275886D02*
X136659580Y-126275886D01*
X136659580Y-126275886D02*
X135659580Y-126847314D01*
X135659580Y-126847314D02*
X136659580Y-126847314D01*
X135659580Y-127323505D02*
X136659580Y-127323505D01*
X136659580Y-127323505D02*
X136659580Y-127561600D01*
X136659580Y-127561600D02*
X136611961Y-127704457D01*
X136611961Y-127704457D02*
X136516723Y-127799695D01*
X136516723Y-127799695D02*
X136421485Y-127847314D01*
X136421485Y-127847314D02*
X136231009Y-127894933D01*
X136231009Y-127894933D02*
X136088152Y-127894933D01*
X136088152Y-127894933D02*
X135897676Y-127847314D01*
X135897676Y-127847314D02*
X135802438Y-127799695D01*
X135802438Y-127799695D02*
X135707200Y-127704457D01*
X135707200Y-127704457D02*
X135659580Y-127561600D01*
X135659580Y-127561600D02*
X135659580Y-127323505D01*
X178542580Y-74166666D02*
X177828295Y-74166666D01*
X177828295Y-74166666D02*
X177685438Y-74119047D01*
X177685438Y-74119047D02*
X177590200Y-74023809D01*
X177590200Y-74023809D02*
X177542580Y-73880952D01*
X177542580Y-73880952D02*
X177542580Y-73785714D01*
X177542580Y-75166666D02*
X177542580Y-74595238D01*
X177542580Y-74880952D02*
X178542580Y-74880952D01*
X178542580Y-74880952D02*
X178399723Y-74785714D01*
X178399723Y-74785714D02*
X178304485Y-74690476D01*
X178304485Y-74690476D02*
X178256866Y-74595238D01*
D10*
X131266666Y-50054819D02*
X131266666Y-50769104D01*
X131266666Y-50769104D02*
X131219047Y-50911961D01*
X131219047Y-50911961D02*
X131123809Y-51007200D01*
X131123809Y-51007200D02*
X130980952Y-51054819D01*
X130980952Y-51054819D02*
X130885714Y-51054819D01*
X131695238Y-50150057D02*
X131742857Y-50102438D01*
X131742857Y-50102438D02*
X131838095Y-50054819D01*
X131838095Y-50054819D02*
X132076190Y-50054819D01*
X132076190Y-50054819D02*
X132171428Y-50102438D01*
X132171428Y-50102438D02*
X132219047Y-50150057D01*
X132219047Y-50150057D02*
X132266666Y-50245295D01*
X132266666Y-50245295D02*
X132266666Y-50340533D01*
X132266666Y-50340533D02*
X132219047Y-50483390D01*
X132219047Y-50483390D02*
X131647619Y-51054819D01*
X131647619Y-51054819D02*
X132266666Y-51054819D01*
D12*
%TO.C,E2*%
X190184205Y-132000000D02*
X183000000Y-139184205D01*
X175815796Y-132000000D01*
X183000000Y-124815796D01*
X190184205Y-132000000D01*
D13*
%TO.C,G\u002A\u002A\u002A*%
G36*
X117374290Y-118365679D02*
G01*
X117454075Y-118622567D01*
X117507688Y-118865157D01*
X117518455Y-119065972D01*
X117436395Y-119181238D01*
X117319243Y-119243901D01*
X117179951Y-119295199D01*
X117068883Y-119280696D01*
X116939529Y-119178679D01*
X116758321Y-118982023D01*
X116582035Y-118774325D01*
X116463318Y-118617127D01*
X116431333Y-118556581D01*
X116502587Y-118495081D01*
X116686152Y-118396834D01*
X116858858Y-118318983D01*
X117286383Y-118138359D01*
X117374290Y-118365679D01*
G37*
G36*
X116861251Y-95732787D02*
G01*
X117066817Y-95857155D01*
X117383436Y-96070918D01*
X117449183Y-96115243D01*
X117758561Y-96330452D01*
X118007288Y-96517140D01*
X118166283Y-96652602D01*
X118209333Y-96708850D01*
X118130825Y-96758459D01*
X117916811Y-96784422D01*
X117599560Y-96786025D01*
X117211339Y-96762555D01*
X116960500Y-96736471D01*
X116691591Y-96691887D01*
X116554774Y-96613001D01*
X116522039Y-96458045D01*
X116565377Y-96185254D01*
X116571451Y-96156333D01*
X116621836Y-95909588D01*
X116667662Y-95757650D01*
X116737833Y-95699168D01*
X116861251Y-95732787D01*
G37*
G36*
X115742187Y-118702771D02*
G01*
X115860234Y-118862813D01*
X115949374Y-119098315D01*
X115997293Y-119362363D01*
X115991677Y-119608050D01*
X115920216Y-119788466D01*
X115906400Y-119803733D01*
X115735211Y-119882719D01*
X115502236Y-119900730D01*
X115305804Y-119851910D01*
X115288333Y-119840537D01*
X115147801Y-119694160D01*
X115003851Y-119478849D01*
X114879737Y-119241434D01*
X114798706Y-119028746D01*
X114784010Y-118887617D01*
X114802256Y-118861486D01*
X114921165Y-118821551D01*
X115129685Y-118772365D01*
X115161333Y-118765969D01*
X115406909Y-118713906D01*
X115599335Y-118667378D01*
X115607543Y-118665097D01*
X115742187Y-118702771D01*
G37*
G36*
X108310696Y-82496451D02*
G01*
X108721481Y-82534721D01*
X109227021Y-82592854D01*
X109791287Y-82666227D01*
X110378251Y-82750216D01*
X110951881Y-82840198D01*
X111351333Y-82908773D01*
X112894998Y-83228849D01*
X114432411Y-83636465D01*
X115988030Y-84140089D01*
X116269741Y-84247273D01*
X117586309Y-84748195D01*
X119251704Y-85469251D01*
X120622333Y-86120106D01*
X121278905Y-86445991D01*
X121795275Y-86710959D01*
X122185243Y-86924508D01*
X122462605Y-87096136D01*
X122641160Y-87235343D01*
X122734704Y-87351626D01*
X122757036Y-87454484D01*
X122721952Y-87553415D01*
X122716762Y-87561954D01*
X122670747Y-87690583D01*
X122685114Y-87869350D01*
X122765036Y-88145364D01*
X122788301Y-88213384D01*
X122955188Y-88743005D01*
X123078655Y-89261905D01*
X123165978Y-89815601D01*
X123224435Y-90449608D01*
X123259624Y-91161000D01*
X123255921Y-92374982D01*
X123157177Y-93616985D01*
X122959997Y-94900273D01*
X122660988Y-96238108D01*
X122256754Y-97643754D01*
X121743901Y-99130472D01*
X121119033Y-100711526D01*
X120388289Y-102379333D01*
X120139996Y-102940497D01*
X119886840Y-103543853D01*
X119650132Y-104136484D01*
X119451182Y-104665470D01*
X119348390Y-104961667D01*
X118885503Y-106632908D01*
X118575909Y-108363524D01*
X118418555Y-110143236D01*
X118412390Y-111961763D01*
X118556361Y-113808828D01*
X118849418Y-115674150D01*
X119290508Y-117547450D01*
X119878579Y-119418449D01*
X120612580Y-121276867D01*
X121133028Y-122403000D01*
X121359852Y-122863039D01*
X121580100Y-123301803D01*
X121775036Y-123682529D01*
X121925927Y-123968454D01*
X121985139Y-124075085D01*
X122102293Y-124307238D01*
X122159128Y-124480571D01*
X122153234Y-124540752D01*
X122063251Y-124521514D01*
X121845266Y-124433123D01*
X121520943Y-124285631D01*
X121111946Y-124089089D01*
X120639940Y-123853551D01*
X120328683Y-123694166D01*
X119828705Y-123436823D01*
X119379435Y-123207692D01*
X119002473Y-123017615D01*
X118719415Y-122877437D01*
X118551861Y-122797999D01*
X118515642Y-122784000D01*
X118501046Y-122864804D01*
X118488018Y-123091773D01*
X118477157Y-123441741D01*
X118469061Y-123891541D01*
X118464327Y-124418009D01*
X118463333Y-124811003D01*
X118460159Y-125408023D01*
X118451173Y-125932190D01*
X118437182Y-126362232D01*
X118418988Y-126676880D01*
X118397402Y-126854859D01*
X118384738Y-126886581D01*
X118301002Y-126841562D01*
X118118103Y-126672267D01*
X117843056Y-126386325D01*
X117482881Y-125991365D01*
X117044596Y-125495017D01*
X116535219Y-124904911D01*
X116207406Y-124519667D01*
X115695813Y-123892420D01*
X115127590Y-123155784D01*
X114525924Y-122342845D01*
X113914001Y-121486689D01*
X113315005Y-120620400D01*
X112752123Y-119777063D01*
X112248538Y-118989768D01*
X112064037Y-118683869D01*
X114069229Y-118683869D01*
X114127758Y-119009946D01*
X114237828Y-119356488D01*
X114427400Y-119743442D01*
X114679989Y-120095111D01*
X114960529Y-120371384D01*
X115233959Y-120532150D01*
X115276767Y-120544996D01*
X115595411Y-120554451D01*
X115950160Y-120458451D01*
X116288348Y-120283556D01*
X116557310Y-120056326D01*
X116696708Y-119828878D01*
X116759405Y-119755975D01*
X116894429Y-119796893D01*
X116916648Y-119808526D01*
X117221190Y-119896987D01*
X117580092Y-119897369D01*
X117914856Y-119815473D01*
X118080279Y-119722489D01*
X118216820Y-119597000D01*
X118279213Y-119462163D01*
X118287082Y-119255299D01*
X118276037Y-119097196D01*
X118207029Y-118744347D01*
X118069298Y-118347796D01*
X117889436Y-117967829D01*
X117694037Y-117664733D01*
X117598031Y-117560135D01*
X117493586Y-117481593D01*
X117378187Y-117456197D01*
X117198992Y-117482777D01*
X116955156Y-117545878D01*
X116729401Y-117608744D01*
X116393698Y-117703537D01*
X115985895Y-117819429D01*
X115543843Y-117945594D01*
X115105391Y-118071205D01*
X114708390Y-118185433D01*
X114390689Y-118277453D01*
X114190138Y-118336435D01*
X114166500Y-118343595D01*
X114081468Y-118452162D01*
X114069229Y-118683869D01*
X112064037Y-118683869D01*
X111827440Y-118291595D01*
X111757486Y-118169668D01*
X110957685Y-116662310D01*
X110597612Y-115867856D01*
X112890812Y-115867856D01*
X112894899Y-116296866D01*
X112976685Y-116563807D01*
X113189975Y-116832888D01*
X113540145Y-117024658D01*
X114011858Y-117136003D01*
X114589780Y-117163812D01*
X115258577Y-117104972D01*
X115472312Y-117070373D01*
X116122250Y-116935049D01*
X116611173Y-116787274D01*
X116947180Y-116623186D01*
X117138372Y-116438922D01*
X117193333Y-116249729D01*
X117147806Y-116089368D01*
X117001317Y-115996354D01*
X116739003Y-115968808D01*
X116346002Y-116004847D01*
X115892824Y-116085130D01*
X115299182Y-116187058D01*
X114760400Y-116245871D01*
X114305345Y-116260301D01*
X113962881Y-116229080D01*
X113801101Y-116177021D01*
X113672234Y-116023747D01*
X113641807Y-115801171D01*
X113705097Y-115611784D01*
X113816463Y-115511569D01*
X114036098Y-115403183D01*
X114379018Y-115281217D01*
X114860237Y-115140259D01*
X115422068Y-114993173D01*
X115945712Y-114852467D01*
X116322112Y-114728342D01*
X116571248Y-114610737D01*
X116713100Y-114489595D01*
X116767648Y-114354858D01*
X116770001Y-114314578D01*
X116700502Y-114113457D01*
X116496402Y-114008954D01*
X116164292Y-114004210D01*
X116128206Y-114008803D01*
X115785196Y-114073086D01*
X115355893Y-114178572D01*
X114886081Y-114311253D01*
X114421543Y-114457116D01*
X114008063Y-114602152D01*
X113691424Y-114732349D01*
X113583808Y-114787458D01*
X113250723Y-115067930D01*
X113014572Y-115443137D01*
X112890812Y-115867856D01*
X110597612Y-115867856D01*
X110293615Y-115197125D01*
X109768670Y-113783313D01*
X109386245Y-112430078D01*
X109361056Y-112293388D01*
X111733174Y-112293388D01*
X111784882Y-112665933D01*
X111887498Y-113169557D01*
X111961635Y-113501052D01*
X112099458Y-114000845D01*
X112251641Y-114339856D01*
X112422948Y-114526365D01*
X112577387Y-114571333D01*
X112698287Y-114495446D01*
X112763209Y-114286772D01*
X112767814Y-113973793D01*
X112719436Y-113639107D01*
X112662658Y-113299570D01*
X112627238Y-112963353D01*
X112621333Y-112816142D01*
X112621333Y-112468144D01*
X113192833Y-112420206D01*
X114070161Y-112337551D01*
X114788068Y-112249275D01*
X115356431Y-112153247D01*
X115785127Y-112047338D01*
X116084032Y-111929419D01*
X116164292Y-111870203D01*
X116263023Y-111797359D01*
X116297130Y-111750862D01*
X116336935Y-111617278D01*
X116254230Y-111490313D01*
X116189120Y-111433362D01*
X116066132Y-111352792D01*
X115912563Y-111301326D01*
X115703726Y-111278935D01*
X115414936Y-111285591D01*
X115021509Y-111321263D01*
X114498761Y-111385924D01*
X114167664Y-111430990D01*
X113680473Y-111496857D01*
X113195473Y-111559447D01*
X112766247Y-111612028D01*
X112446374Y-111647865D01*
X112425397Y-111649978D01*
X112142364Y-111687216D01*
X111936971Y-111748837D01*
X111803873Y-111856181D01*
X111737722Y-112030584D01*
X111733174Y-112293388D01*
X109361056Y-112293388D01*
X109149734Y-111146621D01*
X109140579Y-111074631D01*
X109104240Y-110624787D01*
X109086617Y-110038804D01*
X109086792Y-109501114D01*
X111105801Y-109501114D01*
X111114956Y-109968864D01*
X111187640Y-110226655D01*
X111363872Y-110543918D01*
X111598354Y-110761598D01*
X111854175Y-110845881D01*
X111863725Y-110846000D01*
X112082051Y-110811889D01*
X112195367Y-110693204D01*
X112215286Y-110465410D01*
X112172811Y-110193094D01*
X112130931Y-109827187D01*
X112194205Y-109551249D01*
X112382571Y-109328698D01*
X112715960Y-109122958D01*
X112770938Y-109095565D01*
X113097839Y-108959493D01*
X113418735Y-108889667D01*
X113818477Y-108867936D01*
X113835571Y-108867819D01*
X114339085Y-108898444D01*
X114708066Y-109002328D01*
X114964349Y-109187748D01*
X115069808Y-109335644D01*
X115144000Y-109500762D01*
X115136133Y-109644724D01*
X115041312Y-109848374D01*
X115038417Y-109853756D01*
X114935064Y-110137703D01*
X114965621Y-110329542D01*
X115114568Y-110416827D01*
X115366384Y-110387104D01*
X115587438Y-110294233D01*
X115703726Y-110202795D01*
X115883217Y-110061660D01*
X116046193Y-109759783D01*
X116081135Y-109418030D01*
X115992812Y-109065830D01*
X115785994Y-108732610D01*
X115465448Y-108447799D01*
X115270051Y-108335680D01*
X114795510Y-108172618D01*
X114218913Y-108080555D01*
X113591546Y-108058645D01*
X112964688Y-108106043D01*
X112389623Y-108221905D01*
X111946083Y-108390442D01*
X111532401Y-108685183D01*
X111248628Y-109064314D01*
X111105801Y-109501114D01*
X109086792Y-109501114D01*
X109086842Y-109348746D01*
X109104050Y-108586667D01*
X109137372Y-107784630D01*
X109185942Y-106974693D01*
X109248895Y-106188916D01*
X109281796Y-105850667D01*
X109396606Y-104852328D01*
X109414916Y-104722703D01*
X111286273Y-104722703D01*
X111421241Y-104948265D01*
X111425499Y-104952163D01*
X111654617Y-105089370D01*
X111957014Y-105138535D01*
X112356256Y-105099875D01*
X112875913Y-104973610D01*
X112902626Y-104965836D01*
X113280285Y-104847506D01*
X113591546Y-104738215D01*
X113635246Y-104722871D01*
X113907353Y-104613470D01*
X113970379Y-104583534D01*
X114291172Y-104419878D01*
X114535753Y-104681032D01*
X114831536Y-104964050D01*
X115164576Y-105231238D01*
X115496746Y-105456902D01*
X115789919Y-105615345D01*
X116005967Y-105680871D01*
X116019971Y-105681333D01*
X116247904Y-105633763D01*
X116336538Y-105491968D01*
X116286344Y-105257327D01*
X116097789Y-104931216D01*
X115771342Y-104515011D01*
X115532070Y-104246983D01*
X115308584Y-103994942D01*
X115157754Y-103803960D01*
X115095684Y-103696007D01*
X115119000Y-103683476D01*
X115273645Y-103716355D01*
X115551557Y-103750589D01*
X115906793Y-103781121D01*
X116136418Y-103795477D01*
X116524284Y-103814229D01*
X116784292Y-103816020D01*
X116957609Y-103794067D01*
X117085404Y-103741587D01*
X117208845Y-103651795D01*
X117258251Y-103610625D01*
X117378187Y-103477201D01*
X117457072Y-103389445D01*
X117531984Y-103180674D01*
X117532000Y-103178092D01*
X117496293Y-103009106D01*
X117376179Y-102878896D01*
X117152171Y-102779951D01*
X116804780Y-102704754D01*
X116314520Y-102645791D01*
X116104093Y-102627479D01*
X115328650Y-102539107D01*
X114654659Y-102399293D01*
X114017573Y-102190045D01*
X113352846Y-101893370D01*
X113206708Y-101819816D01*
X112780809Y-101613341D01*
X112473004Y-101495369D01*
X112259586Y-101461846D01*
X112116851Y-101508719D01*
X112028140Y-101618317D01*
X111992938Y-101851585D01*
X112094876Y-102121846D01*
X112312724Y-102406152D01*
X112625252Y-102681561D01*
X113011229Y-102925124D01*
X113394092Y-103094646D01*
X113648888Y-103202424D01*
X113774205Y-103307267D01*
X113806667Y-103434380D01*
X113795561Y-103514855D01*
X113744550Y-103577915D01*
X113627099Y-103633225D01*
X113416670Y-103690453D01*
X113086726Y-103759265D01*
X112727167Y-103827603D01*
X112233240Y-103926393D01*
X111880387Y-104013825D01*
X111641492Y-104098208D01*
X111489440Y-104187842D01*
X111457167Y-104216544D01*
X111298896Y-104463763D01*
X111286273Y-104722703D01*
X109414916Y-104722703D01*
X109534061Y-103879238D01*
X109699617Y-102906339D01*
X109898730Y-101908582D01*
X110136854Y-100860913D01*
X110341210Y-100049083D01*
X112475621Y-100049083D01*
X112579060Y-100323538D01*
X112599314Y-100358922D01*
X112823882Y-100596290D01*
X113116988Y-100684475D01*
X113266321Y-100672035D01*
X113386937Y-100575482D01*
X113482248Y-100328631D01*
X113505851Y-100228777D01*
X113618484Y-99884165D01*
X113799022Y-99653821D01*
X114074582Y-99520034D01*
X114472279Y-99465096D01*
X114681013Y-99461268D01*
X115389463Y-99537661D01*
X116104869Y-99747089D01*
X116761121Y-100069828D01*
X116797883Y-100092817D01*
X117101030Y-100328886D01*
X117241123Y-100557793D01*
X117222864Y-100795428D01*
X117075132Y-101029650D01*
X116904574Y-101271109D01*
X116866657Y-101454583D01*
X116955805Y-101619903D01*
X116987714Y-101653619D01*
X117214576Y-101771504D01*
X117504198Y-101776134D01*
X117807995Y-101681833D01*
X118077383Y-101502920D01*
X118250234Y-101281438D01*
X118350998Y-100947086D01*
X118371089Y-100542761D01*
X118310938Y-100147126D01*
X118242964Y-99959950D01*
X117972150Y-99567788D01*
X117561387Y-99206583D01*
X117039123Y-98889491D01*
X116433802Y-98629670D01*
X115773872Y-98440277D01*
X115087779Y-98334469D01*
X114689867Y-98316585D01*
X114006651Y-98368008D01*
X113441626Y-98523101D01*
X113001593Y-98778457D01*
X112693357Y-99130669D01*
X112579170Y-99373667D01*
X112476039Y-99751124D01*
X112475621Y-100049083D01*
X110341210Y-100049083D01*
X110419446Y-99738278D01*
X110751961Y-98515625D01*
X111139856Y-97167900D01*
X111263806Y-96749000D01*
X111434957Y-96167124D01*
X113473892Y-96167124D01*
X113521896Y-96428468D01*
X113708591Y-96720499D01*
X113724894Y-96739361D01*
X113858397Y-96875244D01*
X114007106Y-96978026D01*
X114209550Y-97064471D01*
X114504261Y-97151337D01*
X114689867Y-97196908D01*
X114889060Y-97245815D01*
X115843930Y-97446985D01*
X116697925Y-97573221D01*
X117498759Y-97630799D01*
X117855627Y-97635980D01*
X118523494Y-97605911D01*
X119037478Y-97518178D01*
X119403774Y-97370332D01*
X119628577Y-97159929D01*
X119716650Y-96900619D01*
X119673613Y-96624644D01*
X119483362Y-96351201D01*
X119138636Y-96072549D01*
X118698494Y-95815186D01*
X118432592Y-95674116D01*
X118052390Y-95469675D01*
X117591864Y-95220271D01*
X117084989Y-94944312D01*
X116565743Y-94660208D01*
X116489097Y-94618142D01*
X116010015Y-94358965D01*
X115573792Y-94130287D01*
X115204585Y-93944181D01*
X114926553Y-93812724D01*
X114763854Y-93747995D01*
X114739190Y-93743333D01*
X114467772Y-93794903D01*
X114327604Y-93935702D01*
X114321275Y-94144863D01*
X114451378Y-94401521D01*
X114632167Y-94605140D01*
X114858631Y-94804335D01*
X115071852Y-94964303D01*
X115151295Y-95012257D01*
X115261666Y-95082366D01*
X115315343Y-95178042D01*
X115323782Y-95347050D01*
X115299264Y-95629243D01*
X115265800Y-95905240D01*
X115232957Y-96104668D01*
X115211580Y-96176642D01*
X115120004Y-96170872D01*
X114910095Y-96124071D01*
X114625043Y-96046040D01*
X114588816Y-96035334D01*
X114185459Y-95923912D01*
X113907218Y-95872041D01*
X113721597Y-95877371D01*
X113596099Y-95937551D01*
X113569600Y-95961600D01*
X113473892Y-96167124D01*
X111434957Y-96167124D01*
X111701767Y-95260027D01*
X112085402Y-93917789D01*
X112259586Y-93283992D01*
X112417447Y-92709588D01*
X112613708Y-91956360D01*
X114668879Y-91956360D01*
X114739190Y-92211205D01*
X114742722Y-92224007D01*
X114818941Y-92362900D01*
X114985044Y-92582512D01*
X115165794Y-92750602D01*
X115178458Y-92759109D01*
X115334538Y-92831424D01*
X115625214Y-92939972D01*
X116021911Y-93075722D01*
X116496049Y-93229645D01*
X117019056Y-93392710D01*
X117562353Y-93555887D01*
X118097365Y-93710145D01*
X118595515Y-93846453D01*
X118732623Y-93882269D01*
X119242525Y-94001335D01*
X119622489Y-94056478D01*
X119899919Y-94046366D01*
X120102220Y-93969668D01*
X120256794Y-93825050D01*
X120270142Y-93807528D01*
X120377342Y-93644510D01*
X120394799Y-93514207D01*
X120327477Y-93334305D01*
X120301938Y-93280225D01*
X120218135Y-93139915D01*
X120094117Y-93014137D01*
X119899907Y-92882050D01*
X119605529Y-92722810D01*
X119248759Y-92547950D01*
X118892836Y-92376833D01*
X118597666Y-92233772D01*
X118393908Y-92133707D01*
X118312222Y-92091580D01*
X118312189Y-92091554D01*
X118324556Y-92007749D01*
X118384656Y-91817569D01*
X118473871Y-91570430D01*
X118573578Y-91315747D01*
X118665154Y-91102937D01*
X118729980Y-90981414D01*
X118731037Y-90980048D01*
X118853715Y-90926346D01*
X119094666Y-90949295D01*
X119160932Y-90963313D01*
X119532831Y-90998639D01*
X119942181Y-90961402D01*
X120342670Y-90864433D01*
X120687987Y-90720561D01*
X120931823Y-90542617D01*
X120996092Y-90454863D01*
X121087184Y-90169164D01*
X121026349Y-89928890D01*
X120809703Y-89730075D01*
X120433369Y-89568756D01*
X120029644Y-89467049D01*
X118673138Y-89154384D01*
X117374504Y-88776048D01*
X117295267Y-88750380D01*
X116714666Y-88583614D01*
X116269741Y-88507894D01*
X115952934Y-88523954D01*
X115756682Y-88632523D01*
X115673426Y-88834334D01*
X115669333Y-88907791D01*
X115752382Y-89245207D01*
X116002210Y-89579710D01*
X116419843Y-89912475D01*
X116686752Y-90075650D01*
X116982148Y-90241910D01*
X117222125Y-90374231D01*
X117368063Y-90451423D01*
X117390485Y-90461766D01*
X117386145Y-90542283D01*
X117333811Y-90736026D01*
X117248913Y-90999216D01*
X117146880Y-91288071D01*
X117043145Y-91558814D01*
X116953134Y-91767662D01*
X116894654Y-91868600D01*
X116804700Y-91864666D01*
X116585826Y-91829987D01*
X116274356Y-91770812D01*
X116023125Y-91718683D01*
X115566621Y-91630489D01*
X115244981Y-91592351D01*
X115032086Y-91601811D01*
X114968659Y-91619445D01*
X114743365Y-91758942D01*
X114668879Y-91956360D01*
X112613708Y-91956360D01*
X112700638Y-91622730D01*
X112937711Y-90644519D01*
X113131403Y-89762259D01*
X113284451Y-88963257D01*
X113399588Y-88234815D01*
X113479553Y-87564239D01*
X113527082Y-86938832D01*
X113544911Y-86345899D01*
X113544829Y-86165667D01*
X113533790Y-85690425D01*
X113509963Y-85237317D01*
X113476414Y-84839483D01*
X113436211Y-84530063D01*
X113392421Y-84342198D01*
X113372735Y-84306513D01*
X113241597Y-84250880D01*
X112966367Y-84187578D01*
X112571949Y-84119629D01*
X112083247Y-84050054D01*
X111525165Y-83981875D01*
X110922607Y-83918115D01*
X110300476Y-83861794D01*
X109683678Y-83815934D01*
X109097113Y-83783557D01*
X109044167Y-83781305D01*
X107710667Y-83726190D01*
X107710667Y-83104428D01*
X107710667Y-82482667D01*
X108030695Y-82482667D01*
X108310696Y-82496451D01*
G37*
D12*
%TO.C,E3*%
X190184205Y-52000001D02*
X183000000Y-59184205D01*
X175815796Y-52000001D01*
X183000000Y-44815796D01*
X190184205Y-52000001D01*
%TO.C,E4*%
X110184205Y-132000000D02*
X103000001Y-139184205D01*
X95815796Y-132000000D01*
X103000001Y-124815796D01*
X110184205Y-132000000D01*
%TO.C,MP1*%
X99340000Y-66460000D02*
X112040000Y-66460000D01*
X112040000Y-81700000D01*
X99340000Y-81700000D01*
X99340000Y-66460000D01*
%TO.C,ICM1*%
X150340000Y-118920000D02*
X173200000Y-118920000D01*
X173200000Y-134160000D01*
X150340000Y-134160000D01*
X150340000Y-118920000D01*
%TO.C,J4*%
X95880000Y-92760000D02*
X106040000Y-92760000D01*
X106040000Y-110540000D01*
X95880000Y-110540000D01*
X95880000Y-92760000D01*
X100960000Y-95300000D02*
G75*
G02*
X95880000Y-95300000I-2540000J0D01*
G01*
X95880000Y-95300000D02*
G75*
G02*
X100960000Y-95300000I2540000J0D01*
G01*
X100960000Y-108000000D02*
G75*
G02*
X95880000Y-108000000I-2540000J0D01*
G01*
X95880000Y-108000000D02*
G75*
G02*
X100960000Y-108000000I2540000J0D01*
G01*
%TO.C,J3*%
D14*
X160120000Y-51140000D02*
X161500000Y-51140000D01*
X160120000Y-52520000D02*
X160120000Y-51140000D01*
X160120000Y-53790000D02*
X160120000Y-107240000D01*
X160120000Y-53790000D02*
X162770000Y-53790000D01*
X160120000Y-107240000D02*
X165420000Y-107240000D01*
X162770000Y-51140000D02*
X165420000Y-51140000D01*
X162770000Y-53790000D02*
X162770000Y-51140000D01*
X165420000Y-51140000D02*
X165420000Y-107240000D01*
D12*
%TO.C,E1*%
X110184205Y-52000001D02*
X103000001Y-59184205D01*
X95815796Y-52000001D01*
X103000001Y-44815796D01*
X110184205Y-52000001D01*
%TO.C,U2*%
X128080000Y-138180000D02*
X117920000Y-138180000D01*
X117920001Y-128020001D01*
X128079999Y-128020001D01*
X128080000Y-138180000D01*
%TO.C,U1*%
D15*
X170120000Y-84990000D02*
X170120000Y-107690000D01*
X170120000Y-84990000D02*
X188120000Y-84990000D01*
X170120000Y-107690000D02*
X174620000Y-107690000D01*
X174620000Y-108990000D02*
X174620000Y-107690000D01*
X174620000Y-108990000D02*
X183620000Y-108990000D01*
X183620000Y-107690000D02*
X188120000Y-107690000D01*
X183620000Y-108990000D02*
X183620000Y-107690000D01*
X188120000Y-84990000D02*
X188120000Y-107690000D01*
D12*
%TO.C,U3*%
X138580000Y-138180000D02*
X128420000Y-138180000D01*
X128420001Y-128020001D01*
X138579999Y-128020001D01*
X138580000Y-138180000D01*
D13*
%TO.C,G\u002A\u002A\u002A*%
G36*
X172902705Y-52408633D02*
G01*
X172916456Y-52423985D01*
X172928128Y-52455409D01*
X172937932Y-52509072D01*
X172946079Y-52591145D01*
X172952780Y-52707797D01*
X172958245Y-52865195D01*
X172962686Y-53069509D01*
X172966313Y-53326908D01*
X172969338Y-53643560D01*
X172971971Y-54025635D01*
X172974424Y-54479301D01*
X172974579Y-54510822D01*
X172977719Y-55021685D01*
X172981793Y-55456996D01*
X172986867Y-55819352D01*
X172993006Y-56111350D01*
X173000277Y-56335588D01*
X173008745Y-56494662D01*
X173018477Y-56591170D01*
X173028210Y-56626493D01*
X173066050Y-56660401D01*
X173115246Y-56672444D01*
X173188276Y-56659396D01*
X173297621Y-56618029D01*
X173455758Y-56545116D01*
X173583029Y-56483023D01*
X173876952Y-56347207D01*
X174140951Y-56248418D01*
X174398487Y-56181318D01*
X174673021Y-56140568D01*
X174988014Y-56120830D01*
X175191846Y-56116958D01*
X175588978Y-56125556D01*
X175924742Y-56161292D01*
X176212611Y-56228785D01*
X176466057Y-56332655D01*
X176698552Y-56477525D01*
X176923570Y-56668013D01*
X176990825Y-56733933D01*
X177208543Y-56985384D01*
X177382911Y-57261730D01*
X177518680Y-57574585D01*
X177620602Y-57935560D01*
X177693431Y-58356268D01*
X177709738Y-58490665D01*
X177718037Y-58606972D01*
X177725533Y-58797505D01*
X177732175Y-59058341D01*
X177737915Y-59385556D01*
X177742705Y-59775228D01*
X177746496Y-60223432D01*
X177749238Y-60726245D01*
X177750882Y-61279743D01*
X177751384Y-61832745D01*
X177751255Y-62389720D01*
X177750796Y-62873708D01*
X177749903Y-63289875D01*
X177748471Y-63643388D01*
X177746396Y-63939412D01*
X177743573Y-64183115D01*
X177739897Y-64379662D01*
X177735264Y-64534220D01*
X177729569Y-64651955D01*
X177722706Y-64738033D01*
X177714572Y-64797622D01*
X177705062Y-64835886D01*
X177694071Y-64857993D01*
X177689978Y-64862747D01*
X177664451Y-64879908D01*
X177620527Y-64893609D01*
X177550136Y-64904223D01*
X177445214Y-64912125D01*
X177297691Y-64917688D01*
X177099502Y-64921288D01*
X176842579Y-64923298D01*
X176518855Y-64924092D01*
X176366147Y-64924154D01*
X176000127Y-64923481D01*
X175705504Y-64921290D01*
X175475531Y-64917320D01*
X175303461Y-64911310D01*
X175182547Y-64903000D01*
X175106043Y-64892129D01*
X175067200Y-64878436D01*
X175061923Y-64873788D01*
X175052832Y-64828617D01*
X175044491Y-64715124D01*
X175036878Y-64532085D01*
X175029970Y-64278279D01*
X175023742Y-63952485D01*
X175018172Y-63553482D01*
X175013237Y-63080047D01*
X175008914Y-62530958D01*
X175005179Y-61904996D01*
X175005022Y-61874634D01*
X175001576Y-61273271D01*
X174997737Y-60746261D01*
X174993430Y-60289807D01*
X174988578Y-59900107D01*
X174983102Y-59573365D01*
X174976927Y-59305779D01*
X174969975Y-59093551D01*
X174962169Y-58932881D01*
X174953433Y-58819971D01*
X174943688Y-58751021D01*
X174941518Y-58741815D01*
X174847772Y-58503925D01*
X174711470Y-58323462D01*
X174540815Y-58204844D01*
X174344013Y-58152489D01*
X174129267Y-58170813D01*
X173980461Y-58224347D01*
X173789880Y-58346386D01*
X173598958Y-58526568D01*
X173424305Y-58746741D01*
X173284375Y-58984971D01*
X173231382Y-59093212D01*
X173185624Y-59189609D01*
X173146521Y-59280580D01*
X173113496Y-59372545D01*
X173085969Y-59471919D01*
X173063362Y-59585122D01*
X173045097Y-59718571D01*
X173030594Y-59878684D01*
X173019275Y-60071878D01*
X173010562Y-60304573D01*
X173003877Y-60583185D01*
X172998639Y-60914132D01*
X172994272Y-61303832D01*
X172990196Y-61758704D01*
X172985832Y-62285164D01*
X172985728Y-62297683D01*
X172981242Y-62813789D01*
X172976911Y-63257173D01*
X172972570Y-63633267D01*
X172968049Y-63947502D01*
X172963182Y-64205310D01*
X172957800Y-64412123D01*
X172951736Y-64573371D01*
X172944823Y-64694486D01*
X172936892Y-64780900D01*
X172927777Y-64838045D01*
X172917309Y-64871351D01*
X172905846Y-64885931D01*
X172852183Y-64895611D01*
X172728949Y-64904248D01*
X172544722Y-64911594D01*
X172308081Y-64917400D01*
X172027604Y-64921417D01*
X171711871Y-64923395D01*
X171609329Y-64923555D01*
X171259843Y-64923307D01*
X170980354Y-64921933D01*
X170762707Y-64919053D01*
X170598749Y-64914283D01*
X170480327Y-64907244D01*
X170399286Y-64897553D01*
X170347472Y-64884828D01*
X170316733Y-64868688D01*
X170310022Y-64862747D01*
X170301744Y-64849001D01*
X170294236Y-64822702D01*
X170287461Y-64780228D01*
X170281382Y-64717958D01*
X170275963Y-64632273D01*
X170271166Y-64519551D01*
X170266954Y-64376171D01*
X170263291Y-64198514D01*
X170260139Y-63982958D01*
X170257461Y-63725882D01*
X170255221Y-63423666D01*
X170253382Y-63072689D01*
X170251906Y-62669330D01*
X170250757Y-62209969D01*
X170249897Y-61690985D01*
X170249290Y-61108758D01*
X170248899Y-60459666D01*
X170248687Y-59740088D01*
X170248616Y-58946405D01*
X170248615Y-58847692D01*
X170248703Y-58034511D01*
X170248987Y-57296048D01*
X170249498Y-56628867D01*
X170250266Y-56029531D01*
X170251323Y-55494606D01*
X170252699Y-55020654D01*
X170254425Y-54604240D01*
X170256533Y-54241928D01*
X170259052Y-53930282D01*
X170262013Y-53665867D01*
X170265448Y-53445245D01*
X170269387Y-53264981D01*
X170273861Y-53121640D01*
X170278901Y-53011785D01*
X170284537Y-52931980D01*
X170290801Y-52878789D01*
X170297723Y-52848777D01*
X170302482Y-52840176D01*
X170356212Y-52817979D01*
X170475484Y-52787014D01*
X170648992Y-52749159D01*
X170865429Y-52706290D01*
X171113489Y-52660284D01*
X171381864Y-52613018D01*
X171659248Y-52566367D01*
X171934333Y-52522208D01*
X172195814Y-52482418D01*
X172432383Y-52448873D01*
X172632732Y-52423451D01*
X172785557Y-52408027D01*
X172879549Y-52404478D01*
X172902705Y-52408633D01*
G37*
%TO.C,J1*%
D12*
X169880000Y-69420000D02*
X187660000Y-69420000D01*
X187660000Y-79580000D01*
X169880000Y-79580000D01*
X169880000Y-69420000D01*
X174960000Y-71960000D02*
G75*
G02*
X169880000Y-71960000I-2540000J0D01*
G01*
X169880000Y-71960000D02*
G75*
G02*
X174960000Y-71960000I2540000J0D01*
G01*
X187660000Y-71960000D02*
G75*
G02*
X182580000Y-71960000I-2540000J0D01*
G01*
X182580000Y-71960000D02*
G75*
G02*
X187660000Y-71960000I2540000J0D01*
G01*
%TO.C,J2*%
D14*
X124820000Y-51140000D02*
X126200000Y-51140000D01*
X124820000Y-52520000D02*
X124820000Y-51140000D01*
X124820000Y-53790000D02*
X124820000Y-107240000D01*
X124820000Y-53790000D02*
X127470000Y-53790000D01*
X124820000Y-107240000D02*
X130120000Y-107240000D01*
X127470000Y-51140000D02*
X130120000Y-51140000D01*
X127470000Y-53790000D02*
X127470000Y-51140000D01*
X130120000Y-51140000D02*
X130120000Y-107240000D01*
%TD*%
M02*
