M48
; DRILL file KiCad 10.0.0 date 2026-03-21T17:09:52
; FORMAT={-:-/ absolute / metric / decimal}
; #@! TF.CreationDate,2026-03-21T17:09:52-07:00
; #@! TF.GenerationSoftware,Kicad,Pcbnew,10.0.0
; #@! TF.FileFunction,Plated,1,2,PTH
FMAT,2
METRIC
; #@! TA.AperFunction,Plated,PTH,ViaDrill
T1C0.300
; #@! TA.AperFunction,Plated,PTH,ComponentDrill
T2C0.840
; #@! TA.AperFunction,Plated,PTH,ComponentDrill
T3C1.000
%
G90
G05
T1
X108.88Y-76.0
X113.5Y-88.5
X117.5Y-57.0
X117.5Y-83.5
X119.5Y-62.0
X132.0Y-116.5
X139.5Y-107.5
X141.0Y-98.5
X141.0Y-103.0
X145.5Y-99.0
X155.25Y-79.75
X157.25Y-81.0
X158.0Y-75.0
X158.0Y-85.5
X159.571Y-79.071
X160.0Y-78.0
X167.75Y-99.5
X175.51Y-63.99
T2
X171.5Y-88.46
X171.5Y-91.0
X171.5Y-93.54
X171.5Y-96.08
X171.5Y-98.62
X171.5Y-101.16
X171.5Y-103.7
X171.5Y-106.24
X186.74Y-88.46
X186.74Y-91.0
X186.74Y-93.54
X186.74Y-96.08
X186.74Y-98.62
X186.74Y-101.16
X186.74Y-103.7
X186.74Y-106.24
T3
X101.88Y-69.0
X103.0Y-55.592
X103.0Y-128.408
X103.5Y-95.3
X103.5Y-97.84
X103.5Y-100.38
X103.5Y-102.92
X103.5Y-105.46
X103.5Y-108.0
X104.42Y-69.0
X104.796Y-53.796
X104.796Y-130.204
X106.592Y-52.0
X106.592Y-132.0
X106.96Y-69.0
X109.5Y-69.0
X120.46Y-130.56
X123.0Y-130.56
X125.54Y-130.56
X126.2Y-52.52
X126.2Y-55.06
X126.2Y-57.6
X126.2Y-60.14
X126.2Y-62.68
X126.2Y-65.22
X126.2Y-67.76
X126.2Y-70.3
X126.2Y-72.84
X126.2Y-75.38
X126.2Y-77.92
X126.2Y-80.46
X126.2Y-83.0
X126.2Y-85.54
X126.2Y-88.08
X126.2Y-90.62
X126.2Y-93.16
X126.2Y-95.7
X126.2Y-98.24
X126.2Y-100.78
X126.2Y-103.32
X126.2Y-105.86
X128.74Y-52.52
X128.74Y-55.06
X128.74Y-57.6
X128.74Y-60.14
X128.74Y-62.68
X128.74Y-65.22
X128.74Y-67.76
X128.74Y-70.3
X128.74Y-72.84
X128.74Y-75.38
X128.74Y-77.92
X128.74Y-80.46
X128.74Y-83.0
X128.74Y-85.54
X128.74Y-88.08
X128.74Y-90.62
X128.74Y-93.16
X128.74Y-95.7
X128.74Y-98.24
X128.74Y-100.78
X128.74Y-103.32
X128.74Y-105.86
X130.96Y-130.56
X133.5Y-130.56
X136.04Y-130.56
X152.88Y-121.46
X155.42Y-121.46
X157.96Y-121.46
X160.5Y-121.46
X161.5Y-52.52
X161.5Y-55.06
X161.5Y-57.6
X161.5Y-60.14
X161.5Y-62.68
X161.5Y-65.22
X161.5Y-67.76
X161.5Y-70.3
X161.5Y-72.84
X161.5Y-75.38
X161.5Y-77.92
X161.5Y-80.46
X161.5Y-83.0
X161.5Y-85.54
X161.5Y-88.08
X161.5Y-90.62
X161.5Y-93.16
X161.5Y-95.7
X161.5Y-98.24
X161.5Y-100.78
X161.5Y-103.32
X161.5Y-105.86
X163.04Y-121.46
X164.04Y-52.52
X164.04Y-55.06
X164.04Y-57.6
X164.04Y-60.14
X164.04Y-62.68
X164.04Y-65.22
X164.04Y-67.76
X164.04Y-70.3
X164.04Y-72.84
X164.04Y-75.38
X164.04Y-77.92
X164.04Y-80.46
X164.04Y-83.0
X164.04Y-85.54
X164.04Y-88.08
X164.04Y-90.62
X164.04Y-93.16
X164.04Y-95.7
X164.04Y-98.24
X164.04Y-100.78
X164.04Y-103.32
X164.04Y-105.86
X165.58Y-121.46
X168.12Y-121.46
X170.66Y-121.46
X172.42Y-77.04
X174.96Y-77.04
X177.5Y-77.04
X179.408Y-52.0
X179.408Y-132.0
X180.04Y-77.04
X181.204Y-53.796
X181.204Y-130.204
X182.58Y-77.04
X183.0Y-55.592
X183.0Y-128.408
X185.12Y-77.04
M30
