%TF.GenerationSoftware,KiCad,Pcbnew,10.0.0*%
%TF.CreationDate,2026-03-21T17:09:59-07:00*%
%TF.ProjectId,FC-v1,46432d76-312e-46b6-9963-61645f706362,rev?*%
%TF.SameCoordinates,Original*%
%TF.FileFunction,Soldermask,Top*%
%TF.FilePolarity,Negative*%
%FSLAX46Y46*%
G04 Gerber Fmt 4.6, Leading zero omitted, Abs format (unit mm)*
G04 Created by KiCad (PCBNEW 10.0.0) date 2026-03-21 17:09:59*
%MOMM*%
%LPD*%
G01*
G04 APERTURE LIST*
G04 Aperture macros list*
%AMRoundRect*
0 Rectangle with rounded corners*
0 $1 Rounding radius*
0 $2 $3 $4 $5 $6 $7 $8 $9 X,Y pos of 4 corners*
0 Add a 4 corners polygon primitive as box body*
4,1,4,$2,$3,$4,$5,$6,$7,$8,$9,$2,$3,0*
0 Add four circle primitives for the rounded corners*
1,1,$1+$1,$2,$3*
1,1,$1+$1,$4,$5*
1,1,$1+$1,$6,$7*
1,1,$1+$1,$8,$9*
0 Add four rect primitives between the rounded corners*
20,1,$1+$1,$2,$3,$4,$5,0*
20,1,$1+$1,$4,$5,$6,$7,0*
20,1,$1+$1,$6,$7,$8,$9,0*
20,1,$1+$1,$8,$9,$2,$3,0*%
%AMRotRect*
0 Rectangle, with rotation*
0 The origin of the aperture is its center*
0 $1 length*
0 $2 width*
0 $3 Rotation angle, in degrees counterclockwise*
0 Add horizontal line*
21,1,$1,$2,0,0,$3*%
G04 Aperture macros list end*
%ADD10C,0.050000*%
%ADD11C,3.200000*%
%ADD12C,1.700000*%
%ADD13RotRect,1.700000X1.700000X225.000000*%
%ADD14RotRect,1.700000X1.700000X315.000000*%
%ADD15RotRect,1.700000X1.700000X135.000000*%
%ADD16R,1.700000X1.700000*%
%ADD17RoundRect,0.250000X-0.600000X-0.600000X0.600000X-0.600000X0.600000X0.600000X-0.600000X0.600000X0*%
%ADD18RotRect,1.700000X1.700000X45.000000*%
%ADD19C,1.552000*%
G04 APERTURE END LIST*
D10*
X143100000Y-92000000D02*
G75*
G02*
X142900000Y-92000000I-100000J0D01*
G01*
X142900000Y-92000000D02*
G75*
G02*
X143100000Y-92000000I100000J0D01*
G01*
D11*
%TO.C,REF\u002A\u002A*%
X187000000Y-60000000D03*
%TD*%
%TO.C,REF\u002A\u002A*%
X186000000Y-120000000D03*
%TD*%
%TO.C,REF\u002A\u002A*%
X100000000Y-120000000D03*
%TD*%
D12*
%TO.C,E2*%
X181203949Y-130203949D03*
X183000000Y-128407898D03*
D13*
X179407898Y-132000000D03*
%TD*%
D12*
%TO.C,E3*%
X181203949Y-53796052D03*
X179407898Y-52000001D03*
D14*
X183000000Y-55592103D03*
%TD*%
D12*
%TO.C,E4*%
X104796052Y-130203949D03*
X106592103Y-132000000D03*
D15*
X103000001Y-128407898D03*
%TD*%
D16*
%TO.C,MP1*%
X109500000Y-69000000D03*
D12*
X106960000Y-69000000D03*
X104420000Y-69000000D03*
X101880000Y-69000000D03*
%TD*%
D17*
%TO.C,ICM1*%
X170660000Y-121460000D03*
D12*
X168120000Y-121460000D03*
X165580000Y-121460000D03*
X163040000Y-121460000D03*
X160500000Y-121460000D03*
X157960000Y-121460000D03*
X155420000Y-121460000D03*
X152880000Y-121460000D03*
%TD*%
%TO.C,J4*%
X103500000Y-95300000D03*
X103500000Y-97840000D03*
X103500000Y-100380000D03*
X103500000Y-102920000D03*
X103500000Y-105460000D03*
X103500000Y-108000000D03*
%TD*%
D16*
%TO.C,J3*%
X161500000Y-52520000D03*
D12*
X164040000Y-52520000D03*
X161500000Y-55060000D03*
X164040000Y-55060000D03*
X161500000Y-57600000D03*
X164040000Y-57600000D03*
X161500000Y-60140000D03*
X164040000Y-60140000D03*
X161500000Y-62680000D03*
X164040000Y-62680000D03*
X161500000Y-65220000D03*
X164040000Y-65220000D03*
X161500000Y-67760000D03*
X164040000Y-67760000D03*
X161500000Y-70300000D03*
X164040000Y-70300000D03*
X161500000Y-72840000D03*
X164040000Y-72840000D03*
X161500000Y-75380000D03*
X164040000Y-75380000D03*
X161500000Y-77920000D03*
X164040000Y-77920000D03*
X161500000Y-80460000D03*
X164040000Y-80460000D03*
X161500000Y-83000000D03*
X164040000Y-83000000D03*
X161500000Y-85540000D03*
X164040000Y-85540000D03*
X161500000Y-88080000D03*
X164040000Y-88080000D03*
X161500000Y-90620000D03*
X164040000Y-90620000D03*
X161500000Y-93160000D03*
X164040000Y-93160000D03*
X161500000Y-95700000D03*
X164040000Y-95700000D03*
X161500000Y-98240000D03*
X164040000Y-98240000D03*
X161500000Y-100780000D03*
X164040000Y-100780000D03*
X161500000Y-103320000D03*
X164040000Y-103320000D03*
X161500000Y-105860000D03*
X164040000Y-105860000D03*
%TD*%
%TO.C,E1*%
X104796052Y-53796052D03*
X103000001Y-55592103D03*
D18*
X106592103Y-52000001D03*
%TD*%
D12*
%TO.C,U2*%
X125540000Y-130560001D03*
X123000000Y-130560001D03*
X120460000Y-130560001D03*
%TD*%
D19*
%TO.C,U1*%
X171500000Y-88460000D03*
X171500000Y-91000000D03*
X171500000Y-93540000D03*
X171500000Y-96080000D03*
X171500000Y-101160000D03*
X171500000Y-98620000D03*
X186740000Y-106240000D03*
X171500000Y-106240000D03*
X186740000Y-103700000D03*
X186740000Y-101160000D03*
X186740000Y-98620000D03*
X186740000Y-96080000D03*
X186740000Y-93540000D03*
X186740000Y-91000000D03*
X186740000Y-88460000D03*
X171500000Y-103700000D03*
%TD*%
D12*
%TO.C,U3*%
X136040000Y-130560001D03*
X133500000Y-130560001D03*
X130960000Y-130560001D03*
%TD*%
%TO.C,J1*%
X185120000Y-77040000D03*
X182580000Y-77040000D03*
X180040000Y-77040000D03*
X177500000Y-77040000D03*
X174960000Y-77040000D03*
X172420000Y-77040000D03*
%TD*%
D16*
%TO.C,J2*%
X126200000Y-52520000D03*
D12*
X128740000Y-52520000D03*
X126200000Y-55060000D03*
X128740000Y-55060000D03*
X126200000Y-57600000D03*
X128740000Y-57600000D03*
X126200000Y-60140000D03*
X128740000Y-60140000D03*
X126200000Y-62680000D03*
X128740000Y-62680000D03*
X126200000Y-65220000D03*
X128740000Y-65220000D03*
X126200000Y-67760000D03*
X128740000Y-67760000D03*
X126200000Y-70300000D03*
X128740000Y-70300000D03*
X126200000Y-72840000D03*
X128740000Y-72840000D03*
X126200000Y-75380000D03*
X128740000Y-75380000D03*
X126200000Y-77920000D03*
X128740000Y-77920000D03*
X126200000Y-80460000D03*
X128740000Y-80460000D03*
X126200000Y-83000000D03*
X128740000Y-83000000D03*
X126200000Y-85540000D03*
X128740000Y-85540000D03*
X126200000Y-88080000D03*
X128740000Y-88080000D03*
X126200000Y-90620000D03*
X128740000Y-90620000D03*
X126200000Y-93160000D03*
X128740000Y-93160000D03*
X126200000Y-95700000D03*
X128740000Y-95700000D03*
X126200000Y-98240000D03*
X128740000Y-98240000D03*
X126200000Y-100780000D03*
X128740000Y-100780000D03*
X126200000Y-103320000D03*
X128740000Y-103320000D03*
X126200000Y-105860000D03*
X128740000Y-105860000D03*
%TD*%
M02*
