%TF.GenerationSoftware,KiCad,Pcbnew,10.0.0*%
%TF.CreationDate,2026-03-21T17:09:56-07:00*%
%TF.ProjectId,FC-v1,46432d76-312e-46b6-9963-61645f706362,rev?*%
%TF.SameCoordinates,Original*%
%TF.FileFunction,Copper,L1,Top*%
%TF.FilePolarity,Positive*%
%FSLAX46Y46*%
G04 Gerber Fmt 4.6, Leading zero omitted, Abs format (unit mm)*
G04 Created by KiCad (PCBNEW 10.0.0) date 2026-03-21 17:09:56*
%MOMM*%
%LPD*%
G01*
G04 APERTURE LIST*
G04 Aperture macros list*
%AMRoundRect*
0 Rectangle with rounded corners*
0 $1 Rounding radius*
0 $2 $3 $4 $5 $6 $7 $8 $9 X,Y pos of 4 corners*
0 Add a 4 corners polygon primitive as box body*
4,1,4,$2,$3,$4,$5,$6,$7,$8,$9,$2,$3,0*
0 Add four circle primitives for the rounded corners*
1,1,$1+$1,$2,$3*
1,1,$1+$1,$4,$5*
1,1,$1+$1,$6,$7*
1,1,$1+$1,$8,$9*
0 Add four rect primitives between the rounded corners*
20,1,$1+$1,$2,$3,$4,$5,0*
20,1,$1+$1,$4,$5,$6,$7,0*
20,1,$1+$1,$6,$7,$8,$9,0*
20,1,$1+$1,$8,$9,$2,$3,0*%
%AMRotRect*
0 Rectangle, with rotation*
0 The origin of the aperture is its center*
0 $1 length*
0 $2 width*
0 $3 Rotation angle, in degrees counterclockwise*
0 Add horizontal line*
21,1,$1,$2,0,0,$3*%
G04 Aperture macros list end*
%TA.AperFunction,ComponentPad*%
%ADD10C,1.700000*%
%TD*%
%TA.AperFunction,ComponentPad*%
%ADD11RotRect,1.700000X1.700000X225.000000*%
%TD*%
%TA.AperFunction,ComponentPad*%
%ADD12RotRect,1.700000X1.700000X315.000000*%
%TD*%
%TA.AperFunction,ComponentPad*%
%ADD13RotRect,1.700000X1.700000X135.000000*%
%TD*%
%TA.AperFunction,ComponentPad*%
%ADD14R,1.700000X1.700000*%
%TD*%
%TA.AperFunction,ComponentPad*%
%ADD15RoundRect,0.250000X-0.600000X-0.600000X0.600000X-0.600000X0.600000X0.600000X-0.600000X0.600000X0*%
%TD*%
%TA.AperFunction,ComponentPad*%
%ADD16RotRect,1.700000X1.700000X45.000000*%
%TD*%
%TA.AperFunction,ComponentPad*%
%ADD17C,1.348000*%
%TD*%
%TA.AperFunction,ViaPad*%
%ADD18C,0.600000*%
%TD*%
%TA.AperFunction,Conductor*%
%ADD19C,0.200000*%
%TD*%
G04 APERTURE END LIST*
D10*
%TO.P,E2,*%
%TO.N,*%
X181203949Y-130203949D03*
%TO.P,E2,1,SIGNAL*%
%TO.N,/PE13*%
X183000000Y-128407898D03*
D11*
%TO.P,E2,2,GND*%
%TO.N,GND*%
X179407898Y-132000000D03*
%TD*%
D10*
%TO.P,E3,*%
%TO.N,*%
X181203949Y-53796052D03*
%TO.P,E3,1,SIGNAL*%
%TO.N,/PB10*%
X179407898Y-52000001D03*
D12*
%TO.P,E3,2,GND*%
%TO.N,GND*%
X183000000Y-55592103D03*
%TD*%
D10*
%TO.P,E4,*%
%TO.N,*%
X104796052Y-130203949D03*
%TO.P,E4,1,SIGNAL*%
%TO.N,/PB0*%
X106592103Y-132000000D03*
D13*
%TO.P,E4,2,GND*%
%TO.N,GND*%
X103000001Y-128407898D03*
%TD*%
D14*
%TO.P,MP1,1,VIN*%
%TO.N,+3.3V*%
X109500000Y-69000000D03*
D10*
%TO.P,MP1,2,GND*%
%TO.N,GND*%
X106960000Y-69000000D03*
%TO.P,MP1,3,SCl*%
%TO.N,/PB6*%
X104420000Y-69000000D03*
%TO.P,MP1,4,SDA*%
%TO.N,/PB7*%
X101880000Y-69000000D03*
%TD*%
D15*
%TO.P,ICM1,1,VCC*%
%TO.N,+3.3V*%
X170660000Y-121460000D03*
D10*
%TO.P,ICM1,2,GND*%
%TO.N,GND*%
X168120000Y-121460000D03*
%TO.P,ICM1,3,MISO*%
%TO.N,/PA6*%
X165580000Y-121460000D03*
%TO.P,ICM1,4,MOSI*%
%TO.N,/PA7*%
X163040000Y-121460000D03*
%TO.P,ICM1,5,SCLK*%
%TO.N,/PA5*%
X160500000Y-121460000D03*
%TO.P,ICM1,6,CS*%
%TO.N,/PA4*%
X157960000Y-121460000D03*
%TO.P,ICM1,7,INT1*%
%TO.N,unconnected-(ICM1-INT1-Pad7)*%
X155420000Y-121460000D03*
%TO.P,ICM1,8,INT2*%
%TO.N,unconnected-(ICM1-INT2-Pad8)*%
X152880000Y-121460000D03*
%TD*%
%TO.P,J4,1,1*%
%TO.N,GND*%
X103500000Y-95300000D03*
%TO.P,J4,2,2*%
X103500000Y-97840000D03*
%TO.P,J4,3,3*%
%TO.N,/PC4*%
X103500000Y-100380000D03*
%TO.P,J4,4,4*%
%TO.N,/PC5*%
X103500000Y-102920000D03*
%TO.P,J4,5,5*%
%TO.N,+5V*%
X103500000Y-105460000D03*
%TO.P,J4,6,6*%
X103500000Y-108000000D03*
%TD*%
D14*
%TO.P,J3,1,Pin_1*%
%TO.N,+3.3V*%
X161500000Y-52520000D03*
D10*
%TO.P,J3,2,Pin_2*%
X164040000Y-52520000D03*
%TO.P,J3,3,Pin_3*%
%TO.N,GND*%
X161500000Y-55060000D03*
%TO.P,J3,4,Pin_4*%
X164040000Y-55060000D03*
%TO.P,J3,5,Pin_5*%
%TO.N,VDDA*%
X161500000Y-57600000D03*
%TO.P,J3,6,Pin_6*%
%TO.N,/VREF+*%
X164040000Y-57600000D03*
%TO.P,J3,7,Pin_7*%
%TO.N,/PB15*%
X161500000Y-60140000D03*
%TO.P,J3,8,Pin_8*%
%TO.N,/PB14*%
X164040000Y-60140000D03*
%TO.P,J3,9,Pin_9*%
%TO.N,/PB13*%
X161500000Y-62680000D03*
%TO.P,J3,10,Pin_10*%
%TO.N,/PB12*%
X164040000Y-62680000D03*
%TO.P,J3,11,Pin_11*%
%TO.N,/PB11*%
X161500000Y-65220000D03*
%TO.P,J3,12,Pin_12*%
%TO.N,/PB10*%
X164040000Y-65220000D03*
%TO.P,J3,13,Pin_13*%
%TO.N,/PE15*%
X161500000Y-67760000D03*
%TO.P,J3,14,Pin_14*%
%TO.N,/PE14*%
X164040000Y-67760000D03*
%TO.P,J3,15,Pin_15*%
%TO.N,/PE13*%
X161500000Y-70300000D03*
%TO.P,J3,16,Pin_16*%
%TO.N,/PE12*%
X164040000Y-70300000D03*
%TO.P,J3,17,Pin_17*%
%TO.N,/PE11*%
X161500000Y-72840000D03*
%TO.P,J3,18,Pin_18*%
%TO.N,/PE10*%
X164040000Y-72840000D03*
%TO.P,J3,19,Pin_19*%
%TO.N,/PE9*%
X161500000Y-75380000D03*
%TO.P,J3,20,Pin_20*%
%TO.N,/PE8*%
X164040000Y-75380000D03*
%TO.P,J3,21,Pin_21*%
%TO.N,/PE7*%
X161500000Y-77920000D03*
%TO.P,J3,22,Pin_22*%
%TO.N,/PB2*%
X164040000Y-77920000D03*
%TO.P,J3,23,Pin_23*%
%TO.N,/PB1*%
X161500000Y-80460000D03*
%TO.P,J3,24,Pin_24*%
%TO.N,/PB0*%
X164040000Y-80460000D03*
%TO.P,J3,25,Pin_25*%
%TO.N,/PC5*%
X161500000Y-83000000D03*
%TO.P,J3,26,Pin_26*%
%TO.N,/PC4*%
X164040000Y-83000000D03*
%TO.P,J3,27,Pin_27*%
%TO.N,/PA7*%
X161500000Y-85540000D03*
%TO.P,J3,28,Pin_28*%
%TO.N,/PA6*%
X164040000Y-85540000D03*
%TO.P,J3,29,Pin_29*%
%TO.N,/PA5*%
X161500000Y-88080000D03*
%TO.P,J3,30,Pin_30*%
%TO.N,/PA4*%
X164040000Y-88080000D03*
%TO.P,J3,31,Pin_31*%
%TO.N,/PA3*%
X161500000Y-90620000D03*
%TO.P,J3,32,Pin_32*%
%TO.N,/PA2*%
X164040000Y-90620000D03*
%TO.P,J3,33,Pin_33*%
%TO.N,/PA1*%
X161500000Y-93160000D03*
%TO.P,J3,34,Pin_34*%
%TO.N,/PA0*%
X164040000Y-93160000D03*
%TO.P,J3,35,Pin_35*%
%TO.N,/PC3*%
X161500000Y-95700000D03*
%TO.P,J3,36,Pin_36*%
%TO.N,/PC2*%
X164040000Y-95700000D03*
%TO.P,J3,37,Pin_37*%
%TO.N,/PC1*%
X161500000Y-98240000D03*
%TO.P,J3,38,Pin_38*%
%TO.N,/PC0*%
X164040000Y-98240000D03*
%TO.P,J3,39,Pin_39*%
%TO.N,/PC13*%
X161500000Y-100780000D03*
%TO.P,J3,40,Pin_40*%
%TO.N,/PE6*%
X164040000Y-100780000D03*
%TO.P,J3,41,Pin_41*%
%TO.N,/PE5*%
X161500000Y-103320000D03*
%TO.P,J3,42,Pin_42*%
%TO.N,/PE4*%
X164040000Y-103320000D03*
%TO.P,J3,43,Pin_43*%
%TO.N,/PE3*%
X161500000Y-105860000D03*
%TO.P,J3,44,Pin_44*%
%TO.N,/PE2*%
X164040000Y-105860000D03*
%TD*%
%TO.P,E1,*%
%TO.N,*%
X104796052Y-53796052D03*
%TO.P,E1,1,SIGNAL*%
%TO.N,/PE9*%
X103000001Y-55592103D03*
D16*
%TO.P,E1,2,GND*%
%TO.N,GND*%
X106592103Y-52000001D03*
%TD*%
D10*
%TO.P,U2,1,GND*%
%TO.N,GND*%
X125540000Y-130560001D03*
%TO.P,U2,2,5V*%
%TO.N,+5V*%
X123000000Y-130560001D03*
%TO.P,U2,3,SIG*%
%TO.N,/PE11*%
X120460000Y-130560001D03*
%TD*%
D17*
%TO.P,U1,0,GPIO0*%
%TO.N,unconnected-(U1-GPIO0-Pad0)*%
X171500000Y-88460000D03*
%TO.P,U1,1,GPIO1*%
%TO.N,unconnected-(U1-GPIO1-Pad1)*%
X171500000Y-91000000D03*
%TO.P,U1,2,GPIO2*%
%TO.N,unconnected-(U1-GPIO2-Pad2)*%
X171500000Y-93540000D03*
%TO.P,U1,3,GPIO3*%
%TO.N,/PD6*%
X171500000Y-96080000D03*
%TO.P,U1,3.3,3V3*%
%TO.N,+3.3V*%
X171500000Y-101160000D03*
%TO.P,U1,4,GPIO4*%
%TO.N,/PD7*%
X171500000Y-98620000D03*
%TO.P,U1,5,GPIO5*%
%TO.N,unconnected-(U1-GPIO5-Pad5)*%
X186740000Y-106240000D03*
%TO.P,U1,5V,5V*%
%TO.N,unconnected-(U1-Pad5V)*%
X171500000Y-106240000D03*
%TO.P,U1,6,GPIO6*%
%TO.N,unconnected-(U1-GPIO6-Pad6)*%
X186740000Y-103700000D03*
%TO.P,U1,7,GPIO7*%
%TO.N,unconnected-(U1-GPIO7-Pad7)*%
X186740000Y-101160000D03*
%TO.P,U1,8,GPIO8*%
%TO.N,unconnected-(U1-GPIO8-Pad8)*%
X186740000Y-98620000D03*
%TO.P,U1,9,GPIO9*%
%TO.N,unconnected-(U1-GPIO9-Pad9)*%
X186740000Y-96080000D03*
%TO.P,U1,10,GPIO10*%
%TO.N,unconnected-(U1-GPIO10-Pad10)*%
X186740000Y-93540000D03*
%TO.P,U1,20,GPIO20*%
%TO.N,unconnected-(U1-GPIO20-Pad20)*%
X186740000Y-91000000D03*
%TO.P,U1,21,GPIO21*%
%TO.N,unconnected-(U1-GPIO21-Pad21)*%
X186740000Y-88460000D03*
%TO.P,U1,G,GND*%
%TO.N,GND*%
X171500000Y-103700000D03*
%TD*%
D10*
%TO.P,U3,1,GND*%
%TO.N,GND*%
X136040000Y-130560001D03*
%TO.P,U3,2,5V*%
%TO.N,+5V*%
X133500000Y-130560001D03*
%TO.P,U3,3,SIG*%
%TO.N,/PE14*%
X130960000Y-130560001D03*
%TD*%
%TO.P,J1,1,1*%
%TO.N,GND*%
X185120000Y-77040000D03*
%TO.P,J1,2,2*%
%TO.N,+5V*%
X182580000Y-77040000D03*
%TO.P,J1,3,3*%
%TO.N,/PA10_RX1*%
X180040000Y-77040000D03*
%TO.P,J1,4,4*%
%TO.N,/PA9_TX1*%
X177500000Y-77040000D03*
%TO.P,J1,5,5*%
%TO.N,/PD13*%
X174960000Y-77040000D03*
%TO.P,J1,6,6*%
%TO.N,/PD12*%
X172420000Y-77040000D03*
%TD*%
D14*
%TO.P,J2,1,Pin_1*%
%TO.N,+5V*%
X126200000Y-52520000D03*
D10*
%TO.P,J2,2,Pin_2*%
X128740000Y-52520000D03*
%TO.P,J2,3,Pin_3*%
%TO.N,+3.3V*%
X126200000Y-55060000D03*
%TO.P,J2,4,Pin_4*%
X128740000Y-55060000D03*
%TO.P,J2,5,Pin_5*%
%TO.N,GND*%
X126200000Y-57600000D03*
%TO.P,J2,6,Pin_6*%
X128740000Y-57600000D03*
%TO.P,J2,7,Pin_7*%
%TO.N,/PD9*%
X126200000Y-60140000D03*
%TO.P,J2,8,Pin_8*%
%TO.N,/PD8*%
X128740000Y-60140000D03*
%TO.P,J2,9,Pin_9*%
%TO.N,/PD11*%
X126200000Y-62680000D03*
%TO.P,J2,10,Pin_10*%
%TO.N,/PD10*%
X128740000Y-62680000D03*
%TO.P,J2,11,Pin_11*%
%TO.N,/PD13*%
X126200000Y-65220000D03*
%TO.P,J2,12,Pin_12*%
%TO.N,/PD12*%
X128740000Y-65220000D03*
%TO.P,J2,13,Pin_13*%
%TO.N,/PD15*%
X126200000Y-67760000D03*
%TO.P,J2,14,Pin_14*%
%TO.N,/PD14*%
X128740000Y-67760000D03*
%TO.P,J2,15,Pin_15*%
%TO.N,/PC7*%
X126200000Y-70300000D03*
%TO.P,J2,16,Pin_16*%
%TO.N,/PC6*%
X128740000Y-70300000D03*
%TO.P,J2,17,Pin_17*%
%TO.N,/PC9*%
X126200000Y-72840000D03*
%TO.P,J2,18,Pin_18*%
%TO.N,/PC8*%
X128740000Y-72840000D03*
%TO.P,J2,19,Pin_19*%
%TO.N,/PA9_TX1*%
X126200000Y-75380000D03*
%TO.P,J2,20,Pin_20*%
%TO.N,/PA8*%
X128740000Y-75380000D03*
%TO.P,J2,21,Pin_21*%
%TO.N,/PA11_USB_DM*%
X126200000Y-77920000D03*
%TO.P,J2,22,Pin_22*%
%TO.N,/PA10_RX1*%
X128740000Y-77920000D03*
%TO.P,J2,23,Pin_23*%
%TO.N,/PA15*%
X126200000Y-80460000D03*
%TO.P,J2,24,Pin_24*%
%TO.N,/PA12_USB_DP*%
X128740000Y-80460000D03*
%TO.P,J2,25,Pin_25*%
%TO.N,/PC11*%
X126200000Y-83000000D03*
%TO.P,J2,26,Pin_26*%
%TO.N,/PC10*%
X128740000Y-83000000D03*
%TO.P,J2,27,Pin_27*%
%TO.N,/PD0*%
X126200000Y-85540000D03*
%TO.P,J2,28,Pin_28*%
%TO.N,/PC12*%
X128740000Y-85540000D03*
%TO.P,J2,29,Pin_29*%
%TO.N,/PD2*%
X126200000Y-88080000D03*
%TO.P,J2,30,Pin_30*%
%TO.N,/PD1*%
X128740000Y-88080000D03*
%TO.P,J2,31,Pin_31*%
%TO.N,/PD4*%
X126200000Y-90620000D03*
%TO.P,J2,32,Pin_32*%
%TO.N,/PD3*%
X128740000Y-90620000D03*
%TO.P,J2,33,Pin_33*%
%TO.N,/PD6*%
X126200000Y-93160000D03*
%TO.P,J2,34,Pin_34*%
%TO.N,/PD5*%
X128740000Y-93160000D03*
%TO.P,J2,35,Pin_35*%
%TO.N,/PB3*%
X126200000Y-95700000D03*
%TO.P,J2,36,Pin_36*%
%TO.N,/PD7*%
X128740000Y-95700000D03*
%TO.P,J2,37,Pin_37*%
%TO.N,/PB5*%
X126200000Y-98240000D03*
%TO.P,J2,38,Pin_38*%
%TO.N,/PB4*%
X128740000Y-98240000D03*
%TO.P,J2,39,Pin_39*%
%TO.N,/PB7*%
X126200000Y-100780000D03*
%TO.P,J2,40,Pin_40*%
%TO.N,/PB6*%
X128740000Y-100780000D03*
%TO.P,J2,41,Pin_41*%
%TO.N,/PB9*%
X126200000Y-103320000D03*
%TO.P,J2,42,Pin_42*%
%TO.N,/PB8*%
X128740000Y-103320000D03*
%TO.P,J2,43,Pin_43*%
%TO.N,/PE1*%
X126200000Y-105860000D03*
%TO.P,J2,44,Pin_44*%
%TO.N,/PE0*%
X128740000Y-105860000D03*
%TD*%
D18*
%TO.N,/PB6*%
X117500000Y-83500000D03*
%TO.N,+3.3V*%
X175510000Y-63990000D03*
%TO.N,/PA10_RX1*%
X159571000Y-79071000D03*
%TO.N,/PB7*%
X108880000Y-76000000D03*
X113500000Y-88500000D03*
%TO.N,/PE11*%
X160000000Y-78000000D03*
X157250000Y-81000000D03*
%TO.N,/PE9*%
X117500000Y-57000000D03*
X119500000Y-62000000D03*
%TO.N,/PE14*%
X158000000Y-75000000D03*
X141000000Y-98500000D03*
X155250000Y-79750000D03*
X141000000Y-103000000D03*
%TO.N,/PE13*%
X167750000Y-99500000D03*
%TO.N,/PB0*%
X145500000Y-99000000D03*
X132000000Y-116500000D03*
X158000000Y-85500000D03*
X139500000Y-107500000D03*
%TD*%
%TO.N,/PA9_TX1*%
D19*
X135500000Y-77500000D02*
X134531000Y-76531000D01*
X177500000Y-77040000D02*
X166460000Y-66000000D01*
X134531000Y-76531000D02*
X127351000Y-76531000D01*
X146500000Y-66500000D02*
X135500000Y-77500000D01*
X166000000Y-66000000D02*
X165500000Y-66500000D01*
X166460000Y-66000000D02*
X166000000Y-66000000D01*
X165500000Y-66500000D02*
X146500000Y-66500000D01*
X127351000Y-76531000D02*
X126200000Y-75380000D01*
%TO.N,/PB6*%
X117500000Y-89500000D02*
X125089000Y-97089000D01*
X126676760Y-97089000D02*
X127500000Y-97912240D01*
X125089000Y-97089000D02*
X126676760Y-97089000D01*
X127500000Y-99540000D02*
X128740000Y-100780000D01*
X117500000Y-83500000D02*
X117500000Y-89500000D01*
X127500000Y-97912240D02*
X127500000Y-99540000D01*
%TO.N,+3.3V*%
X175510000Y-63990000D02*
X188000000Y-76480000D01*
X170525000Y-121325000D02*
X170525000Y-102135000D01*
X188000000Y-80000000D02*
X184000000Y-84000000D01*
X170525000Y-102135000D02*
X171500000Y-101160000D01*
X188000000Y-76480000D02*
X188000000Y-80000000D01*
X184000000Y-84000000D02*
X184000000Y-91000000D01*
X170660000Y-121460000D02*
X170525000Y-121325000D01*
X173840000Y-101160000D02*
X171500000Y-101160000D01*
X184000000Y-91000000D02*
X173840000Y-101160000D01*
%TO.N,+5V*%
X103500000Y-108000000D02*
X103500000Y-105460000D01*
%TO.N,/PA10_RX1*%
X159571000Y-79071000D02*
X129891000Y-79071000D01*
X129891000Y-79071000D02*
X128740000Y-77920000D01*
%TO.N,/PB7*%
X113500000Y-88500000D02*
X113920000Y-88500000D01*
X101880000Y-69000000D02*
X108880000Y-76000000D01*
X113920000Y-88500000D02*
X126200000Y-100780000D01*
%TO.N,GND*%
X136040000Y-131960000D02*
X136000000Y-132000000D01*
X179407898Y-132000000D02*
X175500000Y-132000000D01*
X120600001Y-52000001D02*
X106592103Y-52000001D01*
X125540000Y-130560001D02*
X125540000Y-131540000D01*
X106960000Y-60000000D02*
X106960000Y-52367898D01*
X183000000Y-50500000D02*
X183000000Y-55592103D01*
X103500000Y-95300000D02*
X103500000Y-90000000D01*
X179407898Y-132000000D02*
X136000000Y-132000000D01*
X103500000Y-95300000D02*
X103500000Y-97840000D01*
X126200000Y-57600000D02*
X120600001Y-52000001D01*
X174200000Y-103700000D02*
X171500000Y-103700000D01*
X182500000Y-112000000D02*
X174200000Y-103700000D01*
X106960000Y-69000000D02*
X109481000Y-71521000D01*
X175500000Y-132000000D02*
X169000000Y-125500000D01*
X109481000Y-71521000D02*
X109481000Y-84019000D01*
X136040000Y-130560001D02*
X136040000Y-131960000D01*
X169000000Y-122340000D02*
X169000000Y-125500000D01*
X183000000Y-50500000D02*
X168600000Y-50500000D01*
X106960000Y-52367898D02*
X106592103Y-52000001D01*
X136000000Y-132000000D02*
X126000000Y-132000000D01*
X159280000Y-52840000D02*
X133500000Y-52840000D01*
X126000000Y-132000000D02*
X112500000Y-132000000D01*
X133500000Y-52840000D02*
X128740000Y-57600000D01*
X106960000Y-69000000D02*
X106960000Y-60000000D01*
X168120000Y-121460000D02*
X169000000Y-122340000D01*
X126200000Y-57600000D02*
X128740000Y-57600000D01*
X125540000Y-131540000D02*
X126000000Y-132000000D01*
X108000000Y-136500000D02*
X103000001Y-131500001D01*
X112500000Y-132000000D02*
X108000000Y-136500000D01*
X103000001Y-131500001D02*
X103000001Y-128407898D01*
X161500000Y-55060000D02*
X159280000Y-52840000D01*
X169000000Y-125500000D02*
X182500000Y-112000000D01*
X168600000Y-50500000D02*
X164040000Y-55060000D01*
X109481000Y-84019000D02*
X103500000Y-90000000D01*
%TO.N,/PA5*%
X144500000Y-127500000D02*
X154460000Y-127500000D01*
X144500000Y-105080000D02*
X144500000Y-127500000D01*
X154460000Y-127500000D02*
X160500000Y-121460000D01*
X161500000Y-88080000D02*
X144500000Y-105080000D01*
%TO.N,/PA4*%
X157960000Y-92532240D02*
X157960000Y-121460000D01*
X164040000Y-88080000D02*
X162651000Y-89469000D01*
X162651000Y-89469000D02*
X161023240Y-89469000D01*
X161023240Y-89469000D02*
X157960000Y-92532240D01*
%TO.N,/PA6*%
X164040000Y-85540000D02*
X166430000Y-87930000D01*
X166430000Y-120610000D02*
X165580000Y-121460000D01*
X166430000Y-87930000D02*
X166430000Y-120610000D01*
%TO.N,/PE11*%
X160000000Y-74340000D02*
X160000000Y-78000000D01*
X161500000Y-72840000D02*
X160000000Y-74340000D01*
X157250000Y-81000000D02*
X157250000Y-84500000D01*
X120500000Y-129250000D02*
X120460000Y-129290000D01*
X120460000Y-129290000D02*
X120460000Y-130560001D01*
X120500000Y-121250000D02*
X120500000Y-129250000D01*
X157250000Y-84500000D02*
X120500000Y-121250000D01*
%TO.N,/PE9*%
X117500000Y-60000000D02*
X119500000Y-62000000D01*
X117500000Y-57000000D02*
X117500000Y-60000000D01*
%TO.N,/PE14*%
X141000000Y-98500000D02*
X153750000Y-85750000D01*
X161089000Y-68911000D02*
X162889000Y-68911000D01*
X158000000Y-75000000D02*
X158000000Y-72000000D01*
X153750000Y-85750000D02*
X153750000Y-81250000D01*
X141000000Y-120520001D02*
X141000000Y-103000000D01*
X153750000Y-81250000D02*
X155250000Y-79750000D01*
X162889000Y-68911000D02*
X164040000Y-67760000D01*
X158000000Y-72000000D02*
X161089000Y-68911000D01*
X130960000Y-130560001D02*
X141000000Y-120520001D01*
%TO.N,/PE13*%
X167750000Y-73250000D02*
X166189000Y-71689000D01*
X162889000Y-71689000D02*
X161500000Y-70300000D01*
X166189000Y-71689000D02*
X162889000Y-71689000D01*
X167750000Y-99500000D02*
X167750000Y-73250000D01*
%TO.N,/PB0*%
X139500000Y-109000000D02*
X139500000Y-107500000D01*
X158000000Y-86500000D02*
X158000000Y-85500000D01*
X145500000Y-99000000D02*
X158000000Y-86500000D01*
X132000000Y-116500000D02*
X139500000Y-109000000D01*
%TO.N,/PA7*%
X159000000Y-131000000D02*
X163040000Y-126960000D01*
X161500000Y-85540000D02*
X143000000Y-104040000D01*
X143000000Y-131000000D02*
X159000000Y-131000000D01*
X163040000Y-126960000D02*
X163040000Y-121460000D01*
X143000000Y-104040000D02*
X143000000Y-131000000D01*
%TO.N,/PB10*%
X164040000Y-65220000D02*
X177259999Y-52000001D01*
X177259999Y-52000001D02*
X179407898Y-52000001D01*
%TD*%
M02*
