  0
SECTION
  2
HEADER
  9
$ANGBASE
  50
0.0
  9
$ANGDIR
  70
1
  9
$MEASUREMENT
  70
0
  9
$INSUNITS
  70
1
  0
ENDSEC
  0
SECTION
  2
TABLES
  0
TABLE
  2
LTYPE
  70
4
  0
LTYPE
  5
40F
  2
CONTINUOUS
  70
0
  3
Solid line
  72
65
  73
0
  40
0.0
  0
LTYPE
  5
410
  2
DASHDOT
 70
0
  3
Dash Dot ____ _ ____ _
 72
65
 73
4
 40
2.0
 49
1.25
 49
-0.25
 49
0.25
 49
-0.25
  0
LTYPE
  5
411
  2
DASHED
 70
0
  3
Dashed __ __ __ __ __
 72
65
 73
2
 40
0.75
 49
0.5
 49
-0.25
  0
LTYPE
  5
43B
  2
DOTTED
 70
0
  3
Dotted .  .  .  .
 72
65
 73
2
 40
0.2
 49
0.0
 49
-0.2
  0
ENDTAB
  0
TABLE
  2
STYLE
  70
4
  0
STYLE
  2
KICAD
  70
0
  40
0
  41
1
  42
1
  50
0
  71
0
  3
isocp.shx
  0
STYLE
  2
KICADB
  70
0
  40
0
  41
1
  42
1
  50
0
  71
0
  3
isocp.shx
  0
STYLE
  2
KICADI
  70
0
  40
0
  41
1
  42
1
  50
15
  71
0
  3
isocp.shx
  0
STYLE
  2
KICADBI
  70
0
  40
0
  41
1
  42
1
  50
15
  71
0
  3
isocp.shx
  0
ENDTAB
  0
TABLE
  2
LAYER
  70
1
  0
LAYER
  2
BLACK
  70
0
  62
7
  6
CONTINUOUS
  0
ENDTAB
  0
ENDSEC
  0
SECTION
  2
ENTITIES
0
LINE
8
BLACK
6
CONTINUOUS
10
7.2051010629921262
20
-1.7628701968503937
11
7.2054203937007868
21
-1.7630835433070866
0
LINE
8
BLACK
6
CONTINUOUS
10
7.2054203937007868
20
-1.7630835433070866
11
7.488884960629921
21
-2.0465481496062994
0
LINE
8
BLACK
6
CONTINUOUS
10
7.488884960629921
20
-2.0465481496062994
11
7.4890983070866142
21
-2.0468674409448817
0
LINE
8
BLACK
6
CONTINUOUS
10
7.4890983070866142
20
-2.0468674409448817
11
7.4891732283464565
21
-2.0472440944881889
0
LINE
8
BLACK
6
CONTINUOUS
10
7.4891732283464565
20
-2.0472440944881889
11
7.4891732283464565
21
-5.1968503937007871
0
LINE
8
BLACK
6
CONTINUOUS
10
7.4891732283464565
20
-5.1968503937007871
11
7.4890983070866142
21
-5.1972270472440947
0
LINE
8
BLACK
6
CONTINUOUS
10
7.4890983070866142
20
-5.1972270472440947
11
7.488884960629921
21
-5.1975463385826774
0
LINE
8
BLACK
6
CONTINUOUS
10
7.488884960629921
20
-5.1975463385826774
11
7.2054203937007868
21
-5.4810109448818896
0
LINE
8
BLACK
6
CONTINUOUS
10
7.2054203937007868
20
-5.4810109448818896
11
7.2051010629921262
21
-5.4812242913385827
0
LINE
8
BLACK
6
CONTINUOUS
10
7.2051010629921262
20
-5.4812242913385827
11
7.2047244094488185
21
-5.481299212598425
0
LINE
8
BLACK
6
CONTINUOUS
10
7.2047244094488185
20
-5.481299212598425
11
4.0551181102362204
21
-5.481299212598425
0
LINE
8
BLACK
6
CONTINUOUS
10
4.0551181102362204
20
-5.481299212598425
11
4.0547414566929136
21
-5.4812242913385827
0
LINE
8
BLACK
6
CONTINUOUS
10
4.0547414566929136
20
-5.4812242913385827
11
4.0544221653543309
21
-5.4810109448818896
0
LINE
8
BLACK
6
CONTINUOUS
10
4.0544221653543309
20
-5.4810109448818896
11
3.7709575590551179
21
-5.1975463779527562
0
LINE
8
BLACK
6
CONTINUOUS
10
3.7709575590551179
20
-5.1975463779527562
11
3.7707442125984252
21
-5.1972270472440947
0
LINE
8
BLACK
6
CONTINUOUS
10
3.7707442125984252
20
-5.1972270472440947
11
3.7706692913385824
21
-5.1968503937007871
0
LINE
8
BLACK
6
CONTINUOUS
10
3.7706692913385824
20
-5.1968503937007871
11
3.7706692913385824
21
-2.0472440944881889
0
LINE
8
BLACK
6
CONTINUOUS
10
3.7706692913385824
20
-2.0472440944881889
11
3.7707442125984252
21
-2.0468674409448817
0
LINE
8
BLACK
6
CONTINUOUS
10
3.7707442125984252
20
-2.0468674409448817
11
3.7709575590551179
21
-2.0465481102362206
0
LINE
8
BLACK
6
CONTINUOUS
10
3.7709575590551179
20
-2.0465481102362206
11
4.0544221653543309
21
-1.7630835433070866
0
LINE
8
BLACK
6
CONTINUOUS
10
4.0544221653543309
20
-1.7630835433070866
11
4.0547414566929136
21
-1.7628701968503937
0
LINE
8
BLACK
6
CONTINUOUS
10
4.0547414566929136
20
-1.7628701968503937
11
4.0551181102362204
21
-1.7627952755905512
0
LINE
8
BLACK
6
CONTINUOUS
10
4.0551181102362204
20
-1.7627952755905512
11
7.2047244094488185
21
-1.7627952755905512
0
LINE
8
BLACK
6
CONTINUOUS
10
7.2047244094488185
20
-1.7627952755905512
11
7.2051010629921262
21
-1.7628701968503937
0
LINE
8
BLACK
6
CONTINUOUS
10
4.0555257874015744
20
-1.764763779527559
11
3.7726377952755903
21
-2.0476517716535434
0
LINE
8
BLACK
6
CONTINUOUS
10
3.7726377952755903
20
-2.0476517716535434
11
3.7726377952755903
21
-5.1964426771653542
0
LINE
8
BLACK
6
CONTINUOUS
10
3.7726377952755903
20
-5.1964426771653542
11
4.0555257874015744
21
-5.4793307086614176
0
LINE
8
BLACK
6
CONTINUOUS
10
4.0555257874015744
20
-5.4793307086614176
11
7.2043166929133857
21
-5.4793307086614176
0
LINE
8
BLACK
6
CONTINUOUS
10
7.2043166929133857
20
-5.4793307086614176
11
7.4872047244094491
21
-5.1964426771653542
0
LINE
8
BLACK
6
CONTINUOUS
10
7.4872047244094491
20
-5.1964426771653542
11
7.4872047244094491
21
-2.0476517716535434
0
LINE
8
BLACK
6
CONTINUOUS
10
7.4872047244094491
20
-2.0476517716535434
11
7.2043166929133857
21
-1.764763779527559
0
LINE
8
BLACK
6
CONTINUOUS
10
7.2043166929133857
20
-1.764763779527559
11
4.0555257874015744
21
-1.764763779527559
  0
ENDSEC
  0
EOF
